<svg width="28" height="28" viewBox="0 0 28 28" fill="none" xmlns="http://www.w3.org/2000/svg">
<path d="M25.6667 6.70834H14C13.7679 6.70834 13.5454 6.61616 13.3813 6.45206C13.2172 6.28797 13.125 6.06541 13.125 5.83334C13.125 5.60128 13.2172 5.37872 13.3813 5.21462C13.5454 5.05053 13.7679 4.95834 14 4.95834H25.6667C25.8987 4.95834 26.1213 5.05053 26.2854 5.21462C26.4495 5.37872 26.5417 5.60128 26.5417 5.83334C26.5417 6.06541 26.4495 6.28797 26.2854 6.45206C26.1213 6.61616 25.8987 6.70834 25.6667 6.70834Z" fill="#616469"/>
<path d="M21 11.375H14C13.7679 11.375 13.5454 11.2828 13.3813 11.1187C13.2172 10.9546 13.125 10.7321 13.125 10.5C13.125 10.2679 13.2172 10.0454 13.3813 9.88128C13.5454 9.71719 13.7679 9.625 14 9.625H21C21.2321 9.625 21.4546 9.71719 21.6187 9.88128C21.7828 10.0454 21.875 10.2679 21.875 10.5C21.875 10.7321 21.7828 10.9546 21.6187 11.1187C21.4546 11.2828 21.2321 11.375 21 11.375Z" fill="#616469"/>
<path d="M25.6667 18.375H14C13.7679 18.375 13.5454 18.2828 13.3813 18.1187C13.2172 17.9546 13.125 17.7321 13.125 17.5C13.125 17.2679 13.2172 17.0454 13.3813 16.8813C13.5454 16.7172 13.7679 16.625 14 16.625H25.6667C25.8987 16.625 26.1213 16.7172 26.2854 16.8813C26.4495 17.0454 26.5417 17.2679 26.5417 17.5C26.5417 17.7321 26.4495 17.9546 26.2854 18.1187C26.1213 18.2828 25.8987 18.375 25.6667 18.375Z" fill="#616469"/>
<path d="M21 23.0417H14C13.7679 23.0417 13.5454 22.9495 13.3813 22.7854C13.2172 22.6213 13.125 22.3988 13.125 22.1667C13.125 21.9346 13.2172 21.7121 13.3813 21.548C13.5454 21.3839 13.7679 21.2917 14 21.2917H21C21.2321 21.2917 21.4546 21.3839 21.6187 21.548C21.7828 21.7121 21.875 21.9346 21.875 22.1667C21.875 22.3988 21.7828 22.6213 21.6187 22.7854C21.4546 22.9495 21.2321 23.0417 21 23.0417Z" fill="#616469"/>
<path d="M8.16683 3.79166H3.50016C2.37258 3.79166 1.4585 4.70574 1.4585 5.83332V10.5C1.4585 11.6276 2.37258 12.5417 3.50016 12.5417H8.16683C9.29441 12.5417 10.2085 11.6276 10.2085 10.5V5.83332C10.2085 4.70574 9.29441 3.79166 8.16683 3.79166Z" fill="#616469"/>
<path d="M8.16683 15.4583H3.50016C2.37258 15.4583 1.4585 16.3724 1.4585 17.5V22.1666C1.4585 23.2942 2.37258 24.2083 3.50016 24.2083H8.16683C9.29441 24.2083 10.2085 23.2942 10.2085 22.1666V17.5C10.2085 16.3724 9.29441 15.4583 8.16683 15.4583Z" fill="#616469"/>
</svg>
