<svg width="28" height="28" viewBox="0 0 28 28" fill="none" xmlns="http://www.w3.org/2000/svg">
<path d="M9.24163 15.7148C10.8866 15.7148 12.205 17.046 12.205 18.7027V22.6798C12.205 24.3248 10.8866 25.6665 9.24163 25.6665H5.29829C3.66496 25.6665 2.33496 24.3248 2.33496 22.6798V18.7027C2.33496 17.046 3.66496 15.7148 5.29829 15.7148H9.24163ZM22.7051 15.7148C24.3384 15.7148 25.6684 17.046 25.6684 18.7027V22.6798C25.6684 24.3248 24.3384 25.6665 22.7051 25.6665H18.7617C17.1167 25.6665 15.7984 24.3248 15.7984 22.6798V18.7027C15.7984 17.046 17.1167 15.7148 18.7617 15.7148H22.7051ZM9.24163 2.33353C10.8866 2.33353 12.205 3.67519 12.205 5.32136V9.29853C12.205 10.9552 10.8866 12.2852 9.24163 12.2852H5.29829C3.66496 12.2852 2.33496 10.9552 2.33496 9.29853V5.32136C2.33496 3.67519 3.66496 2.33353 5.29829 2.33353H9.24163ZM22.7051 2.33353C24.3384 2.33353 25.6684 3.67519 25.6684 5.32136V9.29853C25.6684 10.9552 24.3384 12.2852 22.7051 12.2852H18.7617C17.1167 12.2852 15.7984 10.9552 15.7984 9.29853V5.32136C15.7984 3.67519 17.1167 2.33353 18.7617 2.33353H22.7051Z" fill="#616469"/>
</svg>
