<?xml version="1.0" encoding="utf-8"?>
<!-- Generator: Adobe Illustrator 27.5.0, SVG Export Plug-In . SVG Version: 6.00 Build 0)  -->
<svg version="1.1" xmlns="http://www.w3.org/2000/svg" xmlns:xlink="http://www.w3.org/1999/xlink" x="0px" y="0px"
	 viewBox="0 0 500 500" style="enable-background:new 0 0 500 500;" xml:space="preserve">
<g id="Floor">
	<path id="Floor_00000069368802399123745750000002355960470021692316_" style="fill:#F5F5F5;" d="M110.769,277.664
		c-78.752,45.467-78.75,119.185,0.004,164.652c78.754,45.467,206.438,45.467,285.189,0c78.752-45.467,78.75-119.185-0.004-164.652
		C317.204,232.197,189.521,232.197,110.769,277.664z"/>
</g>
<g id="Plants">
	<g id="Plants_00000086664641200145677490000010247162188316447158_">
		<g id="XMLID_00000000913629749160975100000008443094370143577271_">
			<path style="fill:#BA68C8;" d="M425.549,377.577l15.092,8.712c-0.201-5.386-0.67-13.398,0.073-18.79
				c4.557-32.986,17.407-43.861,23.518-59.915c6.434-16.907-1.413-22.348-11.607-19.308c-9.09,2.711-22.244,16.164-26.387,40.778
				C423.484,345.432,423.971,363.216,425.549,377.577z"/>
			<path style="opacity:0.65;fill:#FFFFFF;" d="M425.549,377.577l15.092,8.712c-0.201-5.386-0.67-13.398,0.073-18.79
				c4.557-32.986,17.407-43.861,23.518-59.915c6.434-16.907-1.413-22.348-11.607-19.308c-9.09,2.711-22.244,16.164-26.387,40.778
				C423.484,345.432,423.971,363.216,425.549,377.577z"/>
			<g id="XMLID_00000132056213855569814830000000220535633168108982_">
				<path style="fill:#FFFFFF;" d="M433.549,382.195l1.511,0.871c-5.398-38.457,7.75-71.808,20.727-85.583
					c0.25-0.262,0.237-0.682-0.024-0.932c-0.274-0.25-0.688-0.238-0.938,0.024C441.853,310.357,428.711,343.933,433.549,382.195z"/>
			</g>
		</g>
		<g id="XMLID_00000111902464046794688440000005074532427833166750_">
			<path style="fill:#BA68C8;" d="M436.4,383.84l8.493,4.905h0.006c4.515-13.294,9.151-18.619,14.909-27.362
				c5.246-7.957,11.345-12.886,14.586-18.479c2.87-4.953,5.026-11.174,0.762-14.939c-6.787-5.995-15.646,0.347-21.739,7.202
				C448.153,341.094,437.564,356.862,436.4,383.84z"/>
			<path style="opacity:0.3;fill:#FFFFFF;" d="M436.4,383.84l8.493,4.905h0.006c4.515-13.294,9.151-18.619,14.909-27.362
				c5.246-7.957,11.345-12.886,14.586-18.479c2.87-4.953,5.026-11.174,0.762-14.939c-6.787-5.995-15.646,0.347-21.739,7.202
				C448.153,341.094,437.564,356.862,436.4,383.84z"/>
			<g id="XMLID_00000008849178017352425890000006107689160228615848_">
				<path style="fill:#FFFFFF;" d="M439.885,385.851l1.237,0.719c3.564-21.026,17.845-45.354,26.722-51.099
					c0.311-0.201,0.402-0.621,0.195-0.938c-0.201-0.317-0.615-0.408-0.932-0.201C457.92,340.29,443.669,364.502,439.885,385.851z"/>
			</g>
		</g>
	</g>
	<g id="Plants_00000034794626915587394610000018275200604254842803_">
		<g id="XMLID_00000099645683253497074870000009633998269734979242_">
			<path id="XMLID_00000005948615998733292940000015021619670928757932_" style="fill:#BA68C8;" d="M78.625,418.127
				c0,0,5.139-38.954-7.092-79.432c-6.837-22.626-20.813-33.685-29.677-35.142c-9.935-1.633-20.559,7.277-12.489,22.387
				c7.668,14.357,23.639,20.883,31.205,57.668c4.988,24.251,3.158,40.006,3.158,40.006L78.625,418.127z"/>
			<path id="XMLID_261_" style="opacity:0.5;fill:#FFFFFF;" d="M78.625,418.127c0,0,5.139-38.954-7.092-79.432
				c-6.837-22.626-20.813-33.685-29.677-35.142c-9.935-1.633-20.559,7.277-12.489,22.387c7.668,14.357,23.639,20.883,31.205,57.668
				c4.988,24.251,3.158,40.006,3.158,40.006L78.625,418.127z"/>
			<g id="XMLID_00000080190241961820352870000016046306131452128185_">
				<path style="fill:#FFFFFF;" d="M73.1,408.671c-0.344-0.037-0.591-0.345-0.554-0.689c4.808-44.378-16.182-81.756-32.621-94.124
					c-0.276-0.209-0.332-0.6-0.124-0.877c0.211-0.278,0.6-0.332,0.877-0.124c16.675,12.547,37.973,50.396,33.111,95.26
					C73.752,408.461,73.444,408.708,73.1,408.671z"/>
			</g>
		</g>
		<g id="XMLID_00000078737173982616133030000016057943994323468932_">
			<path id="XMLID_00000122687524194712530850000004561986573089528722_" style="fill:#BA68C8;" d="M63.729,423.614
				c-0.919-10.28-6.002-21.06-17.507-32.811c-11.505-11.751-27.6-22.782-24.654-32.535c2.946-9.753,16.001-7.052,24.969-1.176
				c8.968,5.877,28.612,28.425,22.661,64.387L63.729,423.614z"/>
			<path id="XMLID_260_" style="opacity:0.65;fill:#FFFFFF;" d="M63.729,423.614c-0.919-10.28-6.002-21.06-17.507-32.811
				c-11.505-11.751-27.6-22.782-24.654-32.535c2.946-9.753,16.001-7.052,24.969-1.176c8.968,5.877,28.612,28.425,22.661,64.387
				L63.729,423.614z"/>
			<g id="XMLID_00000003818857744922183850000012523054155322322841_">
				<path style="fill:#FFFFFF;" d="M66.858,412.333c-0.293-0.045-0.522-0.293-0.53-0.599c-0.628-21.662-24.129-49.91-35.402-54.613
					c-0.32-0.132-0.47-0.5-0.336-0.818c0.131-0.32,0.494-0.474,0.818-0.336c11.82,4.931,35.519,33.218,36.171,55.73
					c0.011,0.346-0.261,0.634-0.607,0.644C66.933,412.342,66.896,412.339,66.858,412.333z"/>
			</g>
		</g>
	</g>
</g>
<g id="Shadows">
	<path id="Shadow_123_" style="fill:#E0E0E0;" d="M246.426,302.341L46.888,417.552c-2.165,1.25-2.165,3.277,0,4.527l43.645,25.198
		c2.165,1.25,5.675,1.25,7.84,0l199.539-115.211c2.165-1.25,2.165-3.277,0-4.527l-43.645-25.198
		C252.102,301.091,248.591,301.091,246.426,302.341z"/>
	
		<ellipse id="Shadow_00000132790933014205773040000003562145099916540078_" style="fill:#E0E0E0;" cx="386.373" cy="399.594" rx="66.514" ry="38.402"/>
	<path id="Shadow_46_" style="fill:#E0E0E0;" d="M173.081,440.172l12.196-13.863l0.005,0.009l0.014-0.009h0.001l91.882-53.227
		c-0.001,0.001-0.003,0-0.004,0.001l2.589-1.495l4.215-2.436l0.29-0.167c-0.034,0.01-0.065,0.021-0.098,0.045l4.057-2.324
		c0-0.001,0,0,0.001-0.023l16.576-9.551c3.201-2.189,8.001,2.252,9.87,6.724c0.001,0.002,0.001,0.004,0.002,0.005
		c0.293,0.702,0.52,1.406,0.651,2.085c0.361,1.857,0.048,3.534-1.33,4.481l-13.521,7.787l-3.672,2.117
		c-0.011,0.008-0.014,0.025-0.025,0.032l-3.03,1.744l-0.284,0.156l-3.506,2.023l0,0c-0.034,0.042-0.088,0.077-0.141,0.113
		l-2.944,1.67l-93.455,54.135c0.001-0.002,0.001-0.007,0.002-0.01c-0.002,0.003-0.003,0.006-0.005,0.009l-17.796,3.52l-4.842,0.957
		c-0.246,0.049-0.462-0.03-0.613-0.174c-0.251-0.239-0.322-0.659-0.048-0.973L173.081,440.172z"/>
</g>
<g id="Character">
	<g id="Chartacter_00000024701434703957906240000018232829715650478991_">
		<g id="Bottom_00000021116758118396560560000000868087927445868198_">
			<g>
				<path style="fill:#FFBDA7;" d="M376.662,369.905l1.648-15.176l-17.57,1.144c0,0,0.267,8.238,0.513,12.9
					c0.146,2.757-3.612,7.874-3.612,7.874s8.254,4.374,12.676,2.843c4.422-1.531,6.761-6.97,6.7-8.156
					C376.955,370.147,376.662,369.905,376.662,369.905z"/>
				<path style="fill:#263238;" d="M334.346,393.612c-0.277-0.005-0.742,2.815,0.744,4.042c1.715,1.416,6.78,3.779,13.535,3.086
					c6.755-0.693,10.437-2.561,13.169-4.604c2.732-2.043,6.561-4.925,9.621-5.496c2.842-0.53,5.938-1.666,6.858-2.46
					c0.92-0.795,0.853-4.398,0.853-4.398L334.346,393.612z"/>
				<path id="XMLID_00000182500101890248688620000014263624099298849947_" style="fill:#455A64;" d="M376.666,369.877
					c0,0,0.846,0.023,1.006,0.86c0.191,0.996,0.368,3.885,0.788,5.522c0.582,2.274,0.92,6.922,0.519,8.76
					c-0.402,1.839-5.041,3.043-8.008,4.033c-3.032,1.011-6.554,3.141-9.652,5.424c-3.207,2.363-9.913,4.764-14.306,4.661
					c-5.198-0.123-11.026-1.779-12.331-4.031c-1.614-2.787-2.771-6.013,4.991-9.187c1.47-0.601,6.641-3.321,8.404-4.308
					c4.772-2.672,8.138-5.142,10.392-9.975c0.263-0.565,0.54-1.191,1.133-1.47c0.454-0.214,0.996-0.174,1.501-0.1
					c1.282,0.188,6.393,0.928,7.555,1.464c1.027,0.474,2.486,1.029,2.444,2.254c-0.015,0.427-0.155,0.84-0.311,1.241
					c-0.096,0.249-0.174,0.58,0.06,0.732c0.221,0.143,0.52-0.011,0.724-0.174c0.818-0.655,1.424-1.502,2.116-2.272
					c0.371-0.412,0.774-0.806,1.239-1.129c0.422-0.293,0.957-0.434,1.333-0.769C376.737,370.989,376.634,370.451,376.666,369.877z"
					/>
				<path style="fill:#37474F;" d="M361.318,394.476c1.362-1.003,2.805-1.97,4.253-2.832v-0.006c0,0-9.149,4.945-12.774,2.569
					c-2.336-1.531-1.183-3.323-1.117-3.901c0.067-0.578-8.198-4.805-10.486-5.095v0c-0.644,0.316-1.183,0.57-1.522,0.708
					c-7.762,3.174-6.605,6.4-4.991,9.187c1.305,2.253,5.516,4.064,12.236,4.177C351.311,399.357,358.111,396.839,361.318,394.476z"
					/>
				<path style="fill:#37474F;" d="M352.341,388.629c-4.822,1.692-2.791,2.555-1.451,2.755c1.339,0.2,9.479-4.022,14.458-7.541
					c5.194-3.67,8.498-7.722,10.427-9.069c0.719-0.502,1.494-1.121,2.185-1.7c-0.11-0.978-0.198-1.869-0.287-2.337
					c-0.161-0.837-1.007-0.86-1.007-0.86c-0.032,0.575,0.072,1.112-0.404,1.536c-0.376,0.335-0.911,0.476-1.333,0.769
					c-0.465,0.323-0.868,0.717-1.239,1.129c-0.692,0.77-1.298,1.617-2.116,2.272C367.307,380.426,357.163,386.936,352.341,388.629z"
					/>
				<g>
					<g>
						<path style="fill:#263238;" d="M351.24,390.737c0.106,0.002,0.213-0.028,0.302-0.094c0.206-0.15,0.241-0.426,0.077-0.616
							c-1.328-1.555-7.68-5.3-11.212-5.001c-0.262,0.021-0.453,0.235-0.428,0.476c0.023,0.241,0.228,0.412,0.516,0.398
							c3.298-0.272,9.33,3.438,10.382,4.671C350.967,390.678,351.103,390.735,351.24,390.737z"/>
					</g>
					<g>
						<path style="fill:#263238;" d="M355.461,388.428c0.106,0.002,0.212-0.029,0.302-0.094c0.205-0.15,0.239-0.426,0.077-0.616
							c-1.327-1.554-7.677-5.296-11.212-5c-0.261,0.021-0.453,0.235-0.428,0.476c0.023,0.241,0.248,0.419,0.516,0.398
							c3.3-0.268,9.33,3.437,10.382,4.669C355.187,388.368,355.323,388.426,355.461,388.428z"/>
					</g>
					<g>
						<path style="fill:#263238;" d="M359.68,386.244c0.106,0.002,0.212-0.029,0.302-0.094c0.206-0.15,0.239-0.426,0.077-0.616
							c-1.328-1.555-7.68-5.303-11.212-5c-0.261,0.021-0.454,0.235-0.428,0.476c0.023,0.241,0.244,0.419,0.516,0.398
							c3.3-0.272,9.33,3.436,10.382,4.669C359.407,386.185,359.542,386.242,359.68,386.244z"/>
					</g>
					<g>
						<path style="fill:#263238;" d="M363.597,383.734c0.106,0.002,0.212-0.029,0.302-0.094c0.206-0.149,0.239-0.425,0.077-0.616
							c-1.327-1.556-7.693-5.299-11.212-5c-0.262,0.021-0.454,0.235-0.428,0.476c0.024,0.241,0.245,0.418,0.516,0.398
							c3.296-0.269,9.33,3.436,10.382,4.669C363.324,383.675,363.459,383.732,363.597,383.734z"/>
					</g>
					<g>
						<path style="fill:#263238;" d="M367.436,381.223c0.103,0.002,0.208-0.027,0.296-0.09c0.208-0.147,0.246-0.423,0.087-0.615
							c-1.824-2.204-8.489-5.355-12.02-5.058c-0.261,0.021-0.454,0.235-0.428,0.476c0.024,0.241,0.247,0.413,0.516,0.398
							c3.179-0.266,9.562,2.763,11.181,4.716C367.158,381.163,367.297,381.221,367.436,381.223z"/>
					</g>
				</g>
			</g>
			<g>
				<path style="fill:#FFBDA7;" d="M411.405,378.18l-4.013-14.376l17.886-2.739l0.802,13.916c0,0,1.902,4.966,0.811,6.797
					c-1.092,1.831-12.98,3.903-14.089,2.709C411.694,383.292,411.405,378.18,411.405,378.18z"/>
				<path style="fill:#263238;" d="M413.242,409.535c0.584,4.455,1.569,7.327,3.554,9.718c1.985,2.391,5.467,2.755,8.891,1.515
					c3.424-1.241,7.74-3.905,8.489-7.916c0.749-4.012,0.379-6.642-0.674-10.704L413.242,409.535z"/>
				<path id="XMLID_00000015348477687185661140000013017244959489927604_" style="fill:#455A64;" d="M426.081,374.981
					c1.437-0.095,1.154,6.024,2.363,11.956c1.296,6.358,3.67,8.739,4.798,13.943c1.288,5.946,1.097,8.705-1.093,12.701
					c-2.189,3.996-10.538,8.752-15.1,4.069c-3.718-3.818-4.162-8.549-4.233-14.65c-0.073-6.307-0.068-10.751-0.662-15.464
					c-0.568-4.505-1.953-8.502-0.742-9.175c0.138,0.654,0.285,1.488,0.428,2.13c0.11,0.492,0.409,2.933,1.212,2.848
					c0.037-0.59-0.011-1.129-0.093-1.714c-0.071-0.509-0.057-1.076,0.299-1.518c0.359-0.447,1.723-1.016,2.296-1.194
					c1.393-0.435,3.884-0.986,5.307-1.292c0.709-0.152,1.422-0.279,2.138-0.368c0.581-0.073,1.267-0.122,1.828-0.018
					c0.344,0.064,0.67,0.232,0.814,0.512c0.106,0.206,0.104,0.449,0.119,0.683c0.026,0.42,0.114,0.831,0.258,1.221
					c0.064,0.172,0.219,0.372,0.421,0.301c0.164-0.058,0.218-0.248,0.21-0.398c-0.041-0.733-0.181-1.251-0.274-2.097
					c-0.043-0.391-0.15-0.918-0.181-1.312C426.164,375.753,426.135,375.365,426.081,374.981z"/>
				<path style="fill:#37474F;" d="M432.807,399.197c0.195,0.857,1.408,6.537-0.325,7.824c-1.875,1.394-3.233-3.018-3.233-3.018
					s-4.644-0.61-11.128,2.838c0.401,0.894-0.427,4.133-2.292,3.724c-1.853-0.406-2.99-6.956-3.005-7.041
					c0.092,5.846,0.615,10.417,4.225,14.124c4.561,4.683,12.91-0.073,15.1-4.069c2.19-3.996,2.381-6.756,1.092-12.701
					C433.112,400.284,432.965,399.729,432.807,399.197z"/>
				<path style="fill:#37474F;" d="M428.754,404.463c0.168,2.189,2.589,1.116,2.5-1.996c-0.09-3.112-2.489-10.2-2.809-15.531
					c-0.518-7.315-0.926-12.05-2.363-11.956c0.01,0.074,0.013,0.148,0.022,0.222l0.384,3.044c0.069,0.441,0.138,0.83,0.164,1.303
					c0.32,4.469,0.5,13.158,1.199,17.189C428.548,400.77,428.586,402.273,428.754,404.463z"/>
				<path style="fill:#37474F;" d="M418.889,406.677c-0.607-2.091-1.095-3.493-1.852-7.511c-0.752-3.988-3.282-11.959-4.539-16.246
					c-0.397-0.701-0.577-2.075-0.657-2.431c-0.134-0.599-0.27-1.36-0.4-1.992c-0.012-0.044-0.025-0.087-0.035-0.132
					c-0.872,0.5-0.522,3.962-0.031,5.75c0.491,1.788,1.086,3.704,1.704,6.27c1.559,5.053,1.807,12.667,2.806,15.574
					C416.885,408.867,419.495,408.768,418.889,406.677z"/>
				<g>
					<g>
						<path style="fill:#263238;" d="M417.993,407.039c0.066-0.014,0.13-0.041,0.19-0.076c0.049-0.031,5.095-3.062,10.959-2.491
							c0.289,0.027,0.569-0.161,0.628-0.418c0.06-0.259-0.126-0.49-0.413-0.518c-6.273-0.612-11.498,2.533-11.719,2.668
							c-0.251,0.154-0.335,0.448-0.183,0.658C417.568,407.021,417.786,407.085,417.993,407.039z"/>
					</g>
					<g>
						<path style="fill:#263238;" d="M416.496,402.439c0.059-0.013,0.117-0.035,0.173-0.067c0.056-0.031,5.743-3.222,12.271-2.784
							c0.288,0.015,0.563-0.176,0.614-0.435c0.05-0.259-0.145-0.486-0.434-0.505c-6.904-0.46-12.718,2.807-12.963,2.945
							c-0.257,0.148-0.352,0.44-0.211,0.655C416.057,402.417,416.28,402.488,416.496,402.439z"/>
					</g>
					<g>
						<path style="fill:#263238;" d="M428.305,395.114c0.199-0.045,0.372-0.186,0.43-0.374c0.077-0.257-0.087-0.502-0.37-0.547
							c-6.536-1.04-12.692,2.677-12.953,2.837c-0.253,0.154-0.335,0.448-0.183,0.658c0.152,0.208,0.481,0.248,0.728,0.1
							c0.059-0.035,6.04-3.641,12.122-2.665C428.155,395.134,428.232,395.13,428.305,395.114z"/>
					</g>
					<g>
						<path style="fill:#263238;" d="M427.666,390.899c0.196-0.044,0.366-0.182,0.427-0.366c0.084-0.257-0.076-0.504-0.357-0.553
							c-7.197-1.265-12.975,2.669-13.217,2.837c-0.242,0.168-0.304,0.464-0.137,0.663c0.167,0.199,0.503,0.225,0.739,0.058
							c0.053-0.038,5.613-3.809,12.311-2.633C427.511,390.919,427.591,390.916,427.666,390.899z"/>
					</g>
					<g>
						<path style="fill:#263238;" d="M426.927,386.168c0.193-0.043,0.362-0.179,0.425-0.359c0.087-0.255-0.068-0.504-0.348-0.558
							c-6.75-1.28-13.039,2.802-13.303,2.979c-0.247,0.161-0.315,0.458-0.155,0.662c0.159,0.204,0.488,0.24,0.735,0.073
							c0.061-0.04,6.138-3.981,12.405-2.792C426.767,386.187,426.848,386.185,426.927,386.168z"/>
					</g>
				</g>
			</g>
			<g>
				<path id="XMLID_00000026884383447824351000000017779578709109905853_" style="fill:#37474F;" d="M414.534,226.333
					c4.071,34.038,7.477,82.881,7.477,82.881c0.293,2.677,2.242,7.238,3.751,20.443c1.591,13.93,2.3,50.248,2.3,50.248
					c-1.665,5.345-14.694,7.939-18.706,2.795c0,0-11.988-43.536-15.698-60.05c-3.811-16.962-7.892-42.107-7.892-42.107
					l-2.201,25.207c0,0,0.765,8.642,0.594,15.688c-0.198,8.196-6.307,54.82-6.307,54.82s-12.615,3.106-20.818-3.038
					c0,0-2.284-56.192-2.685-66.041c-0.786-19.318,0.593-55.875,0.849-80.838L414.534,226.333z"/>
				<path id="XMLID_00000157283284886027474480000010618454247072681093_" style="fill:#263238;" d="M386.373,280.544l-4.452-25.053
					c0,0-9.468-1.225-14.386-5.549c0,0,3.225,5.775,12.172,7.899l4.391,22.799l0.074,25.11L386.373,280.544z"/>
			</g>
		</g>
		<g id="Top_00000026874834285946158580000005232418967354365339_">
			<g id="Arm_00000017481903968975769760000017493361798145408958_">
				<path style="fill:#FFBDA7;" d="M355.176,169.02c-7.638,10.341-11.28,15.975-11.28,15.975s-14.814-2.523-20.563-5.035
					c-2.501-1.093-4.389-3.753-4.975-5.478c-1.09-3.213-4.757-5.235-6.499-7.817c-0.553-0.819-1.269-3.09-2.523-2.811
					c-1.133,0.252-1.106,2.175-1.056,3.071c0.085,1.499,0.507,2.925,1.2,4.24c0.343,0.65,0.873,1.207,1.1,1.922
					c0.515,1.628-2.139,0.12-2.621-0.171c-1.278-0.769-2.367-1.838-3.346-2.973c-1.467-1.698-2.749-3.579-4.406-5.079
					c-0.507-0.458-1.059-0.885-1.698-1.105c-0.639-0.219-1.382-0.206-1.945,0.176c-0.553-0.455-1.126-0.922-1.807-1.12
					c-0.681-0.199-1.49-0.053-1.936,0.515c-0.483,0.616-0.067,1.427,0.441,2.368c-1.164,0.069-1.63,0.674-1.574,1.357
					c0.056,0.683,0.298,1.472,0.487,2.13c0.231,0.803,0.421,1.432,0.594,1.87c-0.283,0.201-0.438,0.634-0.504,1.031
					c-0.218,1.299,0.178,2.652,0.738,3.791c1.36,2.767,2.575,6.233,5.07,8.161c3.84,2.966,8.959,6.298,13.578,7.637
					c2.012,0.583,5.07,2.126,7.614,3.262c2.543,1.136,5.183,2.648,11.712,5.529c7.095,3.13,13.713,5.043,16.519,5.193
					c4.014,0.216,5.208-2.488,9.743-8.321c6.148-7.908,18.128-25.376,18.128-25.376l-3.213-15.1
					C367.913,156.731,362.785,158.717,355.176,169.02z"/>
				<path style="fill:#E6E6E6;" d="M375.857,172.07l-5.221-16.238c-5.676,0.644-9.358,3.813-12.817,8.344
					c-4.547,5.957-13.924,20.182-13.924,20.182s-11.687-2.058-18.022-3.781c0,0,1.45,3.319-0.483,8.581
					c-1.933,5.262-5.262,6.869-5.262,6.869s13.584,6.869,21.1,8.919c7.517,2.05,9.288,1.883,12.241-1.496
					C356.423,200.071,375.857,172.07,375.857,172.07z"/>
				<path style="fill:#F0F0F0;" d="M323.82,179.761l5.561,1.449c0,0,1.079,4.316-0.833,9.276c-1.912,4.96-4.997,7.218-4.997,7.218
					l-5.577-2.556c0,0,4.194-3.781,5.484-7.95C324.749,183.03,323.82,179.761,323.82,179.761z"/>
				<path style="opacity:0.25;" d="M344.999,182.693l-1.103,1.665c3.859,1.455,6.733,4.359,7.417,7.284
					C351.587,187.366,348.784,184.576,344.999,182.693z"/>
				<path style="fill:#F0997A;" d="M309.91,176.16c-0.219,3.701,2.699,7.36,5.167,8.835
					C310.68,184.717,308.512,180.146,309.91,176.16z"/>
				<g>
					<path style="fill:#F0997A;" d="M296.565,163.936c2.994,3.025,4.845,6.97,7.665,10.154
						C301.039,171.35,299.078,167.273,296.565,163.936L296.565,163.936z"/>
				</g>
				<g>
					<path style="fill:#F0997A;" d="M293.263,165.699c0.584-0.033,1.048,0.436,1.437,0.824c1.129,1.272,1.926,2.814,2.836,4.237
						c1.174,1.923,2.62,3.649,4.058,5.373c-2.57-2.2-4.489-5.09-6.125-8.07C294.873,167.188,294.359,165.949,293.263,165.699
						L293.263,165.699z"/>
				</g>
				<g>
					<path style="fill:#F0997A;" d="M292.77,171.056c1.789-1.268,3.09,2.37,3.864,3.532c0.46,0.845,0.999,1.632,1.546,2.431
						c0.54,0.799,1.105,1.579,1.705,2.341c-0.738-0.626-1.371-1.37-1.98-2.126c-1.238-1.485-2.06-3.317-2.992-4.998
						C294.469,171.472,293.724,170.466,292.77,171.056L292.77,171.056z"/>
				</g>
			</g>
			<g id="Chest_00000171696743593155456630000013615516037861770419_">
				<path style="fill:#F5F5F5;" d="M385.909,241.458c-2.44,0-4.95-0.096-7.462-0.285c-17.593-1.325-22.567-7.175-23.224-8.063
					c0.097-2.394,1.195-29.596,1.678-43.27c0.697-19.78,7.615-30.275,13.885-33.524l10.284-1.29l16.782-0.184
					c1.315,0.271,2.742,0.521,4.25,0.786c2.461,0.432,5.25,0.921,8.056,1.598c5.491,1.327,7.081,2.23,9.97,3.869
					c0.398,0.227,0.822,0.467,1.284,0.725c0.165,1.981,1.082,15.02-1.96,29.129c-0.139,0.646-0.338,1.5-0.573,2.509
					c-1.076,4.608-2.877,12.321-3.248,18.55c-0.59,9.906-0.308,14.343,0.6,23.323C414.423,236.292,403.853,241.458,385.909,241.458z
					"/>
				<path style="fill:#E0E0E0;" d="M397.804,155.344c1.31,0.268,2.721,0.516,4.211,0.777c2.454,0.43,5.235,0.918,8.025,1.592
					c5.423,1.31,6.9,2.148,9.841,3.818c0.331,0.188,0.68,0.386,1.053,0.595c0.204,2.658,0.945,15.196-1.97,28.719
					c-0.138,0.642-0.336,1.488-0.57,2.489c-1.081,4.626-2.889,12.368-3.263,18.645c-0.584,9.824-0.315,14.286,0.568,23.065
					c-2.431,1.236-12.763,5.914-29.791,5.914c-2.427,0-4.925-0.096-7.423-0.284c-16.697-1.258-21.848-6.6-22.756-7.724
					c0.135-3.335,1.199-29.701,1.671-43.093c0.687-19.482,7.413-29.826,13.537-33.057l10.138-1.271L397.804,155.344 M397.9,154.343
					l-16.892,0.188l-10.372,1.3c-7.234,3.684-13.568,15.075-14.235,33.992c-0.508,14.402-1.685,43.435-1.685,43.435
					s4.163,6.943,23.694,8.414c2.628,0.198,5.127,0.286,7.498,0.286c20.072,0,30.853-6.348,30.853-6.348
					c-0.895-8.813-1.239-13.372-0.632-23.572c0.45-7.561,3.043-17.414,3.812-20.983c3.344-15.511,1.945-29.543,1.945-29.543
					c-4.053-2.249-5.177-3.217-11.611-4.771C405.75,155.649,401.42,155.07,397.9,154.343L397.9,154.343z"/>
			</g>
			<g id="Head_00000181779415448621864110000006297423776362542527_">
				<g>
					<g id="XMLID_00000168083198462388565410000009553070584443687847_">
						<g id="XMLID_00000129179822429358073720000012731870664169387962_">
							<path style="fill:#37474F;" d="M403.24,113.667c0,0,3.011,0.229,4.986,4.026c0.992,1.908,1.703,5.387-1.013,15.333
								c-1.748,6.402-3.847,9.193-4.784,10.975c-0.936,1.782-2.856,2.28-2.856,2.28l0.198-7.645l-1.998-4.873
								c0,0-2.013-4.353-2.383-8.181c-0.476-4.926,1.447-7.717,1.447-7.717L403.24,113.667z"/>
							<path style="fill:#37474F;" d="M404.28,113.924c-0.745-4.298-6.196-9.426-16.71-9.988c-3.335-0.178-6.382,0.283-9.463,1.631
								c-2.672,1.168-5.364,2.886-8.252,2.481c-0.597-0.084-1.357-0.189-1.664,0.33c-0.112,0.189-0.125,0.419-0.116,0.639
								c0.049,1.116,0.667,2.192,1.605,2.797c-1.362,0.099-2.588,1.197-2.836,2.54c-0.248,1.343,0.505,2.807,1.742,3.386
								c-0.563,1.046-0.482,2.408,0.203,3.379c1.258,1.785,3.613,1.374,5.5,1.277c1.929-0.1,3.858-0.199,5.788-0.299
								c4.206-0.217,8.413-0.435,12.619-0.652c1.422-0.074,2.844-0.147,4.267-0.22L404.28,113.924z"/>
							<path style="fill:#FFBDA7;" d="M406.759,141.065c-3.962,1.926-5.769-1.208-5.769-1.208l0.033,16.128
								c-4.302,5.758-17.085,10.351-18.688,10.319c-1.069-0.408-3.54-6.328-1.516-11.805l0.005-3.776c0,0-1.329,0.003-3.431-0.335
								c-3.506-0.554-6.448-2.336-7.492-6.134c-0.534-1.945-0.832-3.263-1.05-6.91c-0.29-4.839,0.436-7.636,1.05-10.508
								c0.532-2.487-0.535-4.946,0-7.365c0.409-1.847,1.724-3.333,3.42-4.171c2.581-1.275,5.508-1.271,8.021-0.224
								c3.197,1.334,6.179,2.983,9.665,3.42c1.508,0.189,3.044,0.165,4.545-0.077c0.089,1.619-0.081,3.243-0.003,4.862
								c0.078,1.619,0.434,3.29,1.438,4.564c0.28,0.355,0.685,0.709,0.848,1.14c0.389,1.033-0.382,2.113,0.482,3.077
								c0.296,0.33,0.716,0.535,1.152,0.614c0.26,0.047,0.536,0.05,0.78-0.049c0.528-0.214,1.004-0.751,1.336-1.193
								c1.074-1.431,2.465-2.575,4.303-2.694c1.875-0.122,3.465,0.907,4.253,2.597C411.9,135.113,410.43,139.281,406.759,141.065z"
								/>
							<path style="fill:#F0997A;" d="M380.834,150.712c4.602-0.027,8.686-0.595,11.401-1.74c2.716-1.145,5.123-4.818,5.912-8.462
								c0,2.933-1.287,8.133-5.403,10.293c-4.117,2.16-8.91,2.276-11.921,2.341L380.834,150.712z"/>
						</g>
						<g id="XMLID_00000031177549882642540820000004984319775254709149_">
							<path id="XMLID_00000139280063033454802780000002005477064314110372_" style="fill:#37474F;" d="M387.229,123.225
								l3.889,1.638c0.43-1.113-0.092-2.382-1.166-2.835C388.878,121.576,387.659,122.111,387.229,123.225z"/>
							<path id="XMLID_00000013159019568999397980000004044454002010313376_" style="fill:#37474F;" d="M372.366,123.982
								l3.953-1.569c-0.396-1.117-1.601-1.67-2.693-1.237C372.534,121.609,371.97,122.866,372.366,123.982z"/>
							<path style="fill:#263238;" d="M389.84,127.75c-0.034,0.949-0.831,1.691-1.78,1.657c-0.949-0.034-1.691-0.831-1.657-1.78
								c0.034-0.949,0.831-1.691,1.78-1.657C389.133,126.005,389.875,126.801,389.84,127.75z"/>
							<path style="fill:#263238;" d="M376.913,127.218c-0.034,0.949-0.831,1.691-1.78,1.657c-0.949-0.034-1.691-0.831-1.657-1.78
								c0.034-0.949,0.831-1.691,1.78-1.657C376.205,125.472,376.947,126.269,376.913,127.218z"/>
							<path id="XMLID_00000107583479444182297160000000260383869445899177_" style="fill:#F0997A;" d="M382.945,125.437
								l-1.419,10.946l-5.783-2.136C377.802,130.388,380.203,127.451,382.945,125.437z"/>
						</g>
					</g>
				</g>
				<path id="XMLID_00000103232771711883941500000017182048928110472621_" style="fill:#B16668;" d="M385.513,137.784l-6.05,2
					c0.522,1.731,2.299,2.688,3.97,2.136C385.104,141.368,386.035,139.516,385.513,137.784z"/>
				<path style="fill:#F28F8F;" d="M384.874,138.875c0.26-0.057,0.516-0.074,0.768-0.073c-0.016,1.387-0.866,2.674-2.209,3.118
					c-0.337,0.112-0.677,0.146-1.011,0.141C382.173,140.645,383.245,139.232,384.874,138.875z"/>
			</g>
			<g id="Tie_00000013159065628548686450000007993439037103118265_">
				<g>
					<g>
						<path style="fill:#BA68C8;" d="M379.295,167.354c0,0-2.56-4.962-2.547-6.897l3.17-3.22l0.923,8.072L379.295,167.354z"/>
						<path style="opacity:0.2;" d="M379.295,167.354c0,0-2.56-4.962-2.547-6.897l3.17-3.22l0.923,8.072L379.295,167.354z"/>
					</g>
					<g>
						<polygon style="fill:#BA68C8;" points="383.605,165.646 388.988,162.041 393.435,165.078 385.177,169.222 						"/>
						<polygon style="opacity:0.2;" points="383.605,165.646 388.988,162.041 393.435,165.078 385.177,169.222 						"/>
					</g>
					<g>
						<path style="fill:#BA68C8;" d="M385.919,215.357c-2.704-15.305-3.027-39.281-2.68-43.474l-2.93-0.307
							c-2.068,5.022-8.189,29.503-8.123,41.429c-0.172,4.155,5.113,15.333,7.915,15.452
							C382.902,228.575,386.36,217.85,385.919,215.357z"/>
						<path style="opacity:0.1;fill:#FFFFFF;" d="M385.919,215.357c-2.704-15.305-3.027-39.281-2.68-43.474l-2.93-0.307
							c-2.068,5.022-8.189,29.503-8.123,41.429c-0.172,4.155,5.113,15.333,7.915,15.452
							C382.902,228.575,386.36,217.85,385.919,215.357z"/>
						<path style="opacity:0.5;" d="M380.074,172.21c0.092-0.262,0.154-0.436,0.233-0.629c0,0,0,0,0,0
							c0.001-0.002,0.001-0.003,0.002-0.005l2.93,0.307c0,0,0,0,0,0c-0.03,0.355-0.029,0.704-0.013,1.289
							C382.164,173.331,380.65,172.656,380.074,172.21z"/>
						<path style="fill:#BA68C8;" d="M383.683,165.241c-1.266-0.243-2.769-0.136-2.769-0.136s-1.029,0.863-1.619,2.249
							c0,0,0.031,2.583,1.014,4.221c0,0,1.133,0.824,2.93,0.307c0,0,1.656-1.17,2.13-2.805
							C385.457,167.669,384.333,165.649,383.683,165.241z"/>
						<path style="opacity:0.1;fill:#FFFFFF;" d="M383.683,165.241c-1.266-0.243-2.769-0.136-2.769-0.136s-1.029,0.863-1.619,2.249
							c0,0,0.031,2.583,1.014,4.221c0,0,1.133,0.824,2.93,0.307c0,0,1.656-1.17,2.13-2.805
							C385.457,167.669,384.333,165.649,383.683,165.241z"/>
					</g>
				</g>
				<g>
					<g>
						<path style="fill:#E6E6E6;" d="M383.623,165.23c0.095,0.005,0.218,0.223,0.312,0.239c2.044-1.099,2.369-1.473,2.911-1.318
							c1.027,0.293,3.445,4.572,4.044,5.953c0.612,1.37,0.493,1.365,2.38,0.113c3.652-2.439,7.612-5.678,9.555-8.176
							c2.989-3.844,3.354-6.213,3.354-6.213s-1.073-2.307-1.703-3.441c-1.218-2.192-2.224-4.591-3.47-4.401l-0.008,1.462
							c-0.215,1.911-3.27,4.503-6.44,6.523c-2.985,1.901-7.163,4.201-8.183,5.185C385.63,161.867,384.557,163.541,383.623,165.23z"
							/>
						<path style="fill:#E6E6E6;" d="M373.919,166.848c0.301,0.776,2.779-5.318,3.996-5.191c0.587,0.048,1.905,1.702,2.999,3.448
							c0,0,0.704-0.019,0.829-0.023c-0.737-1.833-1.111-3.419-1.258-4.647c-0.248-2.076,0.338-6.088,0.338-6.088l0.011-3.634
							c-0.322,0.017-0.589-0.02-0.998-0.046c-0.308,0.311-0.816,0.846-1.382,1.566c-1.408,1.795-3.964,5.454-4.357,7.784
							C373.467,163.751,373.801,166.559,373.919,166.848z"/>
					</g>
				</g>
			</g>
			<g id="Arm_00000003070123055782719890000003061819489306459267_">
				<path style="fill:#F0997A;" d="M428.627,251.328c1.298-1.416,2.969-2.668,3.509-4.592c0.278-0.991,0.183-2.134-0.466-2.933
					c-0.135-0.167-0.297-0.326-0.35-0.533c-0.044-0.173-0.006-0.355,0.027-0.53c0.137-0.729,0.174-1.514-0.143-2.185
					c-0.269-0.568-0.79-1.011-1.395-1.185c0.346-1.066,0.336-2.244-0.029-3.303c-0.431-1.252-1.726-2.253-2.575-0.849
					c-0.414,0.685-0.718,1.44-0.98,2.194c-0.657,1.884-2.148,3.625-2.349,5.608c-0.21,2.077,0.392,8.195,3.606,8.473
					C427.733,251.515,428.443,251.529,428.627,251.328z"/>
				<path style="fill:#FFBDA7;" d="M411.429,241.945c0.382-2.553,0.904-5.085,1.56-7.581c0.227-0.862,0.719-1.606,1.223-2.331
					c0.58-0.834,1.133-1.697,1.76-2.495c1.759-2.241,5.094-6.644,8.401-11.039c7.979-2.529,12.296,1.369,14.124,9.637
					c-3.778,3.565-8.327,7.344-11.984,11.034c-0.969,0.978-1.469,1.945-1.14,3.378c0.192,0.834,0.556,1.63,0.65,2.48
					c0.122,1.095-0.211,2.187-0.263,3.287c-0.052,1.101,0.298,2.364,1.297,2.83c0.483,0.225,1.038,0.223,1.57,0.184
					c-0.941,0.665-1.924,1.298-3.022,1.647c-1.098,0.349-2.334,0.389-3.371-0.112c-1.007-0.486-1.765-1.441-2.836-1.761
					c-0.578-0.173-1.2-0.143-1.783-0.297c-0.599-0.159-1.144-0.515-1.529-1c-0.612-0.77-0.865-1.876-1.728-2.347
					c-0.413-0.225-0.901-0.261-1.337-0.437c-0.891-0.359-1.464-1.272-1.66-2.212C411.164,243.87,411.286,242.895,411.429,241.945z"
					/>
				<path style="fill:#FFBDA7;" d="M416.705,159.144c12.378,2.338,12.665,5.166,20.035,15.314
					c7.274,10.015,15.415,21.889,17.716,26.827c2.849,6.113,3.452,8.46-3.094,14.976c-3.373,3.357-8.08,7.359-12.866,11.875
					c-3.365-6.431-8.092-9.599-14.124-9.637c4.692-6.234,9.328-12.451,9.328-12.451l-13.949-17.654
					C419.752,188.394,408.69,176.791,416.705,159.144z"/>
				<path style="fill:#E6E6E6;" d="M448.26,189.751c-3.163-4.714-6.95-9.626-9.858-13.81c-2.908-4.184-6.805-10.554-10.209-13.036
					c-3.404-2.482-6.251-3.369-12.775-4.672c-4.989,8.641-1.763,24.032,1.145,27.578c2.908,3.546,16.427,20.016,16.427,20.016
					l-6.371,9.683c0,0,2.696-0.418,7.637,3.918c4.941,4.337,5.19,8.707,5.19,8.707s6.704-6.109,11.67-10.702
					c4.966-4.593,5.809-6.57,6.083-8.932C457.82,203.156,451.424,194.465,448.26,189.751z"/>
				<path style="fill:#F0F0F0;" d="M428.061,213.164l-4.058,5.441c0,0,4.662,0.508,8.28,4.063c3.618,3.555,4.343,8.343,4.343,8.343
					l5.732-5.006c0,0-0.435-4.861-5.079-8.924C432.636,213.019,428.061,213.164,428.061,213.164z"/>
				<path style="opacity:0.25;" d="M432.991,205.827c3.763,3.687,10.312,4.203,12.464,4.07c-7.587,3.094-13.628-2.302-13.628-2.302
					L432.991,205.827z"/>
			</g>
		</g>
	</g>
</g>
<g id="Folder">
	<g id="Folder_4_">
		<g>
			<path style="fill:#BA68C8;" d="M278.496,328.468l-1.391-0.803c0,0-0.539-0.312-1.624-0.939l-1.414-0.816
				c-2.163-1.255-4.181-4.273-4.511-6.749L250.32,174.794c-0.31-2.332-1.37-4.005-2.856-4.865c-0.509-0.295-1.938-1.123-2.451-1.417
				c-1.672-0.958-3.878-0.89-6.164,0.429l-98.803,56.366c-2.362,1.363-5.079,1.535-7.47,0.715c-0.732-0.639-1.378-1.4-1.891-2.289
				l-3.208-5.555c-0.821-1.423-1.972-2.535-3.3-3.301c-0.512-0.295-1.955-1.127-2.465-1.421c-2.707-1.554-6.142-1.669-9.04,0.003
				l-45.643,26.352c-4.333,2.502-7.309,8.551-6.649,13.51l22.963,172.369c0.275,2.278,2.149,6.331,5.615,8.39l4.422,2.551
				c0.649,0.386,1.641,0.8,2.74,0.831c1.125,0.031,1.912-0.355,2.255-0.553l182.901-108.17
				C280.564,329.152,279.582,329.094,278.496,328.468z"/>
			<path style="opacity:0.25;" d="M278.497,328.468l-4.419-2.551c-2.167-1.251-4.191-4.275-4.521-6.756L250.32,174.794
				c-0.66-4.96-4.709-6.952-9.042-4.451l-98.217,56.706c-4.334,2.502-9.874,1.017-12.376-3.316l-3.208-5.555
				c-2.501-4.333-8.043-5.818-12.376-3.316l-45.643,26.352c-4.333,2.502-7.31,8.551-6.649,13.511l22.74,170.672
				c0.33,2.479,2.355,5.504,4.521,6.755l4.422,2.552c1.082,0.625,2.061,0.685,2.771,0.276L281.274,328.74
				C280.564,329.153,279.582,329.094,278.497,328.468z"/>
			<path style="opacity:0.25;" d="M90.07,432.152l4.422,2.552c1.082,0.625,2.061,0.685,2.771,0.276L281.274,328.74
				c-0.711,0.413-1.692,0.354-2.778-0.272l-4.419-2.551c-1.064-0.615-2.088-1.661-2.9-2.857L87.17,429.296
				C87.982,430.491,89.006,431.538,90.07,432.152z"/>
		</g>
		<g id="TXT">
			<g>
				<path style="fill:#F0F0F0;" d="M305.736,49.293V227c0,1.146-0.805,2.541-1.802,3.114l-132.015,76.145
					c-0.49,0.282-0.947,0.315-1.271,0.124c-0.324-0.191-3.048-1.76-3.371-1.951c-0.324-0.183-0.523-0.59-0.523-1.163V108.167
					c0-1.146,0.797-2.541,1.794-3.114l116.949-67.439L305.736,49.293z"/>
				<path style="fill:#E0E0E0;" d="M173.497,109.989l-6.277-3.479c-0.289,0.535-0.47,1.123-0.47,1.66l0,195.102
					c0,0.573,0.201,0.976,0.527,1.164c0.325,0.188,3.048,1.76,3.373,1.947c0.325,0.188,0.775,0.161,1.271-0.126l1.575-0.909V109.989
					z"/>
			</g>
			<g>
				<path style="fill:#FAFAFA;" d="M171.123,306.086c-0.523,0-0.579-0.607-0.579-0.868V110.121c0-0.995,0.727-2.256,1.587-2.755
					l106.821-61.606l9.916-5.727l16.45,9.501v177.469c0,0.996-0.73,2.257-1.595,2.754l-132.009,76.139
					C171.501,306.021,171.296,306.086,171.123,306.086z"/>
				<path style="fill:#E0E0E0;" d="M288.868,40.512l16.035,9.261v177.229c0,0.851-0.647,1.97-1.386,2.395l-132.011,76.14
					c-0.208,0.12-0.337,0.133-0.383,0.133c-0.162,0-0.163-0.434-0.163-0.453V110.121c0-0.85,0.645-1.969,1.378-2.395L279.16,46.118
					L288.868,40.512 M288.868,39.553l-10.122,5.846l-106.823,61.607c-0.988,0.573-1.794,1.968-1.794,3.114v195.097
					c0,0.813,0.405,1.283,0.994,1.283c0.241,0,0.513-0.079,0.8-0.245l132.009-76.139c0.996-0.573,1.802-1.968,1.802-3.114V49.294
					L288.868,39.553L288.868,39.553z"/>
			</g>
			<g>
				<g>
					<path style="fill:#E0E0E0;" d="M181.919,189.149c-0.239,0-0.472-0.125-0.602-0.348c-0.191-0.332-0.077-0.756,0.254-0.948
						l109.368-63.057c0.329-0.189,0.755-0.078,0.949,0.254c0.191,0.332,0.078,0.756-0.254,0.948l-109.368,63.056
						C182.157,189.119,182.037,189.149,181.919,189.149z"/>
				</g>
				<g>
					<path style="fill:#E0E0E0;" d="M181.919,181.995c-0.239,0-0.472-0.125-0.602-0.348c-0.191-0.332-0.077-0.756,0.254-0.948
						l109.368-63.057c0.329-0.19,0.755-0.079,0.949,0.254c0.191,0.332,0.078,0.756-0.254,0.948l-109.368,63.057
						C182.157,181.965,182.037,181.995,181.919,181.995z"/>
				</g>
				<g>
					<path style="fill:#E0E0E0;" d="M181.919,174.841c-0.239,0-0.472-0.125-0.602-0.348c-0.191-0.332-0.077-0.756,0.254-0.948
						l109.368-63.056c0.329-0.191,0.755-0.08,0.949,0.254c0.191,0.332,0.078,0.756-0.254,0.948l-109.368,63.056
						C182.157,174.811,182.037,174.841,181.919,174.841z"/>
				</g>
				<g>
					<path style="fill:#E0E0E0;" d="M181.919,167.687c-0.239,0-0.472-0.125-0.602-0.348c-0.191-0.332-0.077-0.756,0.254-0.948
						l109.368-63.057c0.329-0.191,0.755-0.08,0.949,0.255c0.191,0.332,0.078,0.756-0.254,0.948l-109.368,63.057
						C182.157,167.657,182.037,167.687,181.919,167.687z"/>
				</g>
				<g>
					<path style="fill:#E0E0E0;" d="M181.919,160.533c-0.239,0-0.472-0.125-0.602-0.347c-0.191-0.332-0.077-0.756,0.254-0.948
						l109.368-63.056c0.329-0.19,0.755-0.078,0.949,0.254c0.191,0.332,0.078,0.756-0.254,0.948L182.266,160.44
						C182.157,160.503,182.037,160.533,181.919,160.533z"/>
				</g>
				<g>
					<path style="fill:#E0E0E0;" d="M181.919,153.379c-0.239,0-0.472-0.125-0.602-0.348c-0.191-0.332-0.077-0.756,0.254-0.948
						l109.368-63.057c0.329-0.191,0.755-0.079,0.949,0.254c0.191,0.332,0.078,0.756-0.254,0.948l-109.368,63.056
						C182.157,153.349,182.037,153.379,181.919,153.379z"/>
				</g>
				<g>
					<path style="fill:#E0E0E0;" d="M181.919,146.224c-0.239,0-0.472-0.125-0.602-0.348c-0.191-0.332-0.077-0.756,0.254-0.948
						l109.368-63.056c0.329-0.189,0.755-0.08,0.949,0.254c0.191,0.332,0.078,0.756-0.254,0.948l-109.368,63.056
						C182.157,146.194,182.037,146.224,181.919,146.224z"/>
				</g>
				<g>
					<path style="fill:#E0E0E0;" d="M181.919,139.07c-0.239,0-0.472-0.125-0.602-0.348c-0.191-0.332-0.077-0.756,0.254-0.948
						l109.368-63.056c0.329-0.189,0.755-0.08,0.949,0.254c0.191,0.332,0.078,0.756-0.254,0.948l-109.368,63.056
						C182.157,139.04,182.037,139.07,181.919,139.07z"/>
				</g>
				<g>
					<path style="fill:#E0E0E0;" d="M181.919,131.917c-0.239,0-0.472-0.125-0.602-0.348c-0.191-0.332-0.077-0.756,0.254-0.948
						l109.368-63.057c0.329-0.19,0.755-0.079,0.949,0.254c0.191,0.332,0.078,0.756-0.254,0.948l-109.368,63.056
						C182.157,131.887,182.037,131.917,181.919,131.917z"/>
				</g>
			</g>
			<g>
				<g>
					<path style="fill:#E0E0E0;" d="M181.919,252.576c-0.239,0-0.472-0.125-0.602-0.348c-0.191-0.332-0.077-0.756,0.254-0.948
						l109.368-63.057c0.329-0.19,0.755-0.078,0.949,0.254c0.191,0.332,0.078,0.756-0.254,0.948l-109.368,63.056
						C182.157,252.546,182.037,252.576,181.919,252.576z"/>
				</g>
				<g>
					<path style="fill:#E0E0E0;" d="M181.919,245.422c-0.239,0-0.472-0.125-0.602-0.348c-0.191-0.332-0.077-0.756,0.254-0.948
						l109.368-63.057c0.329-0.19,0.755-0.079,0.949,0.255c0.191,0.332,0.078,0.756-0.254,0.948l-109.368,63.057
						C182.157,245.392,182.037,245.422,181.919,245.422z"/>
				</g>
				<g>
					<path style="fill:#E0E0E0;" d="M181.919,238.268c-0.239,0-0.472-0.125-0.602-0.347c-0.191-0.332-0.077-0.756,0.254-0.948
						l109.368-63.056c0.329-0.191,0.755-0.08,0.949,0.254c0.191,0.332,0.078,0.756-0.254,0.948l-109.368,63.056
						C182.157,238.238,182.037,238.268,181.919,238.268z"/>
				</g>
				<g>
					<path style="fill:#E0E0E0;" d="M181.919,231.114c-0.239,0-0.472-0.125-0.602-0.348c-0.191-0.332-0.077-0.756,0.254-0.948
						l109.368-63.057c0.329-0.191,0.755-0.08,0.949,0.254c0.191,0.332,0.078,0.756-0.254,0.948l-109.368,63.057
						C182.157,231.084,182.037,231.114,181.919,231.114z"/>
				</g>
				<g>
					<path style="fill:#E0E0E0;" d="M181.919,223.96c-0.239,0-0.472-0.125-0.602-0.347c-0.191-0.332-0.077-0.756,0.254-0.948
						l109.368-63.057c0.329-0.19,0.755-0.078,0.949,0.254c0.191,0.332,0.078,0.756-0.254,0.948l-109.368,63.057
						C182.157,223.93,182.037,223.96,181.919,223.96z"/>
				</g>
				<g>
					<path style="fill:#E0E0E0;" d="M181.919,216.806c-0.239,0-0.472-0.125-0.602-0.347c-0.191-0.332-0.077-0.756,0.254-0.948
						l109.368-63.057c0.329-0.191,0.755-0.079,0.949,0.254c0.191,0.332,0.078,0.756-0.254,0.948l-109.368,63.057
						C182.157,216.776,182.037,216.806,181.919,216.806z"/>
				</g>
				<g>
					<path style="fill:#E0E0E0;" d="M181.919,209.651c-0.239,0-0.472-0.125-0.602-0.348c-0.191-0.332-0.077-0.756,0.254-0.948
						L290.939,145.3c0.329-0.189,0.755-0.08,0.949,0.255c0.191,0.332,0.078,0.756-0.254,0.948l-109.368,63.056
						C182.157,209.621,182.037,209.651,181.919,209.651z"/>
				</g>
				<g>
					<path style="fill:#E0E0E0;" d="M181.919,202.497c-0.239,0-0.472-0.125-0.602-0.348c-0.191-0.332-0.077-0.756,0.254-0.948
						l109.368-63.056c0.329-0.19,0.755-0.08,0.949,0.254c0.191,0.332,0.078,0.756-0.254,0.948l-109.368,63.056
						C182.157,202.467,182.037,202.497,181.919,202.497z"/>
				</g>
				<g>
					<path style="fill:#E0E0E0;" d="M181.919,195.343c-0.239,0-0.472-0.125-0.602-0.348c-0.191-0.332-0.077-0.756,0.254-0.948
						l109.368-63.057c0.329-0.19,0.755-0.079,0.949,0.255c0.191,0.332,0.078,0.756-0.254,0.948L182.266,195.25
						C182.157,195.313,182.037,195.343,181.919,195.343z"/>
				</g>
			</g>
			<g>
				<g>
					<path style="fill:#E0E0E0;" d="M181.919,280.233c-0.239,0-0.472-0.125-0.602-0.348c-0.191-0.332-0.077-0.756,0.254-0.948
						l109.368-63.057c0.329-0.191,0.755-0.079,0.949,0.254c0.191,0.332,0.078,0.756-0.254,0.948l-109.368,63.056
						C182.157,280.203,182.037,280.233,181.919,280.233z"/>
				</g>
				<g>
					<path style="fill:#E0E0E0;" d="M181.919,273.078c-0.239,0-0.472-0.125-0.602-0.348c-0.191-0.332-0.077-0.756,0.254-0.948
						l109.368-63.056c0.329-0.189,0.755-0.08,0.949,0.254c0.191,0.332,0.078,0.756-0.254,0.948l-109.368,63.056
						C182.157,273.048,182.037,273.078,181.919,273.078z"/>
				</g>
				<g>
					<path style="fill:#E0E0E0;" d="M181.919,265.924c-0.239,0-0.472-0.125-0.602-0.348c-0.191-0.332-0.077-0.756,0.254-0.948
						l109.368-63.056c0.329-0.19,0.755-0.08,0.949,0.254c0.191,0.332,0.078,0.756-0.254,0.948l-109.368,63.056
						C182.157,265.894,182.037,265.924,181.919,265.924z"/>
				</g>
				<g>
					<path style="fill:#E0E0E0;" d="M181.919,258.77c-0.239,0-0.472-0.125-0.602-0.348c-0.191-0.332-0.077-0.756,0.254-0.948
						l109.368-63.057c0.329-0.19,0.755-0.079,0.949,0.255c0.191,0.332,0.078,0.756-0.254,0.948l-109.368,63.057
						C182.157,258.74,182.037,258.77,181.919,258.77z"/>
				</g>
			</g>
			<path style="fill:#E0E0E0;" d="M288.871,56.949V39.552l16.865,9.741l-15.063,8.694C289.677,58.56,288.871,58.095,288.871,56.949z
				"/>
		</g>
		<g>
			<path id="XMLID_744_" style="fill:#FAFAFA;" d="M87.17,271.782l0.001,149.834c0,0.653,0.459,1.448,1.025,1.775l1.154,0.667
				c0.566,0.327,1.484,0.327,2.05,0l166.001-95.84c0.566-0.327,1.025-1.121,1.025-1.775l0.001-149.833
				c0-0.654-0.459-1.448-1.025-1.775l-1.157-0.668c-0.566-0.327-1.484-0.327-2.05,0l-165.999,95.84
				C87.629,270.334,87.17,271.129,87.17,271.782z"/>
			<path id="XMLID_739_" style="fill:#E0E0E0;" d="M258.4,176.343c-0.018-0.126-0.054-0.251-0.101-0.38
				c-0.024-0.058-0.053-0.124-0.078-0.183c-0.089-0.186-0.202-0.366-0.332-0.528c-0.087-0.105-0.178-0.198-0.278-0.277
				c-0.067-0.053-0.14-0.101-0.21-0.143l-1.15-0.666c-0.571-0.326-1.483-0.328-2.05-0.001L88.202,270.006
				c-0.287,0.166-0.546,0.443-0.725,0.764l3.2,1.851c0.189-0.319,0.444-0.603,0.725-0.765l165.999-95.839
				C257.886,175.738,258.291,175.887,258.4,176.343z"/>
			<g>
				<path id="XMLID_736_" style="fill:#E0E0E0;" d="M91.113,424.181c-0.425,0.099-0.738-0.175-0.739-0.712l0.001-149.835
					c0.002-0.329,0.11-0.692,0.3-1.011l-3.2-1.851c-0.19,0.319-0.305,0.686-0.3,1.011l-0.001,149.835
					c-0.007,0.651,0.455,1.45,1.022,1.77l1.154,0.673C89.836,424.336,90.563,424.381,91.113,424.181z"/>
			</g>
			<g style="opacity:0.1;">
				<path id="XMLID_735_" d="M91.113,424.181c-0.425,0.099-0.738-0.175-0.739-0.712l0.001-149.835c0.002-0.329,0.11-0.692,0.3-1.011
					l-3.2-1.851c-0.19,0.319-0.305,0.686-0.3,1.011l-0.001,149.835c-0.007,0.651,0.455,1.45,1.022,1.77l1.154,0.673
					C89.836,424.336,90.563,424.381,91.113,424.181z"/>
			</g>
		</g>
		<g>
			<path id="XMLID_00000148658716536657900220000007736800105770378680_" style="fill:#FAFAFA;" d="M95.174,275.526l0.001,149.834
				c0,0.653,0.459,1.448,1.025,1.775l1.154,0.667c0.566,0.327,1.484,0.327,2.05,0l166.001-95.841
				c0.566-0.327,1.025-1.121,1.025-1.775l0.001-149.833c0-0.654-0.459-1.448-1.025-1.775l-1.157-0.668
				c-0.566-0.327-1.484-0.327-2.05,0l-165.999,95.84C95.633,274.078,95.174,274.873,95.174,275.526z"/>
			<path id="XMLID_00000181047863710311673620000001193887618904992405_" style="fill:#E0E0E0;" d="M266.403,180.087
				c-0.018-0.127-0.054-0.251-0.101-0.38c-0.025-0.058-0.053-0.124-0.078-0.182c-0.089-0.186-0.202-0.366-0.332-0.528
				c-0.087-0.104-0.178-0.198-0.278-0.277c-0.067-0.053-0.14-0.101-0.21-0.143l-1.15-0.666c-0.571-0.326-1.483-0.328-2.05-0.001
				L96.206,273.75c-0.287,0.166-0.546,0.443-0.725,0.764l3.2,1.851c0.189-0.319,0.444-0.603,0.725-0.765l165.998-95.84
				C265.89,179.482,266.295,179.63,266.403,180.087z"/>
			<g>
				<path id="XMLID_00000152248047884922686200000009719860545363691682_" style="fill:#E0E0E0;" d="M99.117,427.926
					c-0.425,0.099-0.738-0.175-0.739-0.712l0.001-149.835c0.002-0.329,0.11-0.692,0.3-1.011l-3.2-1.851
					c-0.19,0.319-0.305,0.686-0.3,1.011l-0.001,149.835c-0.007,0.651,0.455,1.45,1.022,1.77l1.154,0.673
					C97.84,428.08,98.567,428.125,99.117,427.926z"/>
			</g>
			<g style="opacity:0.1;">
				<path id="XMLID_00000157267712719980945920000006436213659287615930_" d="M99.117,427.926c-0.425,0.099-0.738-0.175-0.739-0.712
					l0.001-149.835c0.002-0.329,0.11-0.692,0.3-1.011l-3.2-1.851c-0.19,0.319-0.305,0.686-0.3,1.011l-0.001,149.835
					c-0.007,0.651,0.455,1.45,1.022,1.77l1.154,0.673C97.84,428.08,98.567,428.125,99.117,427.926z"/>
			</g>
		</g>
		<path style="fill:#BA68C8;" d="M284.646,185.268c0-2.495-0.875-4.248-2.289-5.07c-0.376-0.218-1.874-1.087-2.255-1.304
			c-1.418-0.811-3.371-0.691-5.53,0.555l-168.312,97.178c-4.333,2.502-7.846,8.586-7.846,13.59v142.222
			c0,1.253-0.44,2.132-1.151,2.541l1.11,1.93l185.128-106.882c0.708-0.411,1.145-1.289,1.145-2.538L284.646,185.268z"/>
		<path style="opacity:0.25;fill:#FFFFFF;" d="M98.373,436.91c1.026-0.592,2.269-1.93,2.269-4.471V291.506
			c0-5.003,3.513-11.088,7.846-13.59l168.312-97.178c4.333-2.502,7.846-0.474,7.846,4.53l0.001,142.223
			c0,1.249-0.437,2.127-1.145,2.538L98.373,436.91z"/>
	</g>
</g>
<g id="Chart">
	<g id="Donut_Chart_00000106116662338402615590000004421120768713541034_">
		<g style="opacity:0.2;">
			<path d="M58.956,97.007l72.581-41.871c0.702-0.405,1.271-0.077,1.271,0.734l0,94.225c0,0.811-0.569,1.797-1.271,2.202
				l-72.581,41.871c-0.702,0.406-1.272,0.077-1.272-0.734l0-94.225C57.684,98.399,58.253,97.413,58.956,97.007z"/>
		</g>
		<g>
			<path id="XMLID_00000091709484006753334390000001509281472188793488_" style="fill:#BA68C8;" d="M132.559,62.072l-67.289,38.802
				c-0.774,0.447-1.402,1.534-1.402,2.427v91.766c0,0.894,0.632,1.973,1.41,2.412l2.67,1.515c0.779,0.439,2.037,0.433,2.811-0.014
				l67.289-38.802c0.774-0.447,1.402-1.534,1.402-2.428V65.987c0-0.894-0.631-1.975-1.41-2.414l-2.67-1.515
				C134.592,61.619,133.333,61.625,132.559,62.072z"/>
			<path id="XMLID_00000014591861270283799590000016356606390515138745_" style="opacity:0.2;" d="M70.759,198.98
				c-0.746,0.433-2.109,0.448-2.813,0.016l-2.667-1.52c-0.777-0.434-1.41-1.516-1.41-2.41v-91.766c0-0.466,0.174-0.978,0.446-1.431
				l5.457,3.158c-0.259,0.434-0.414,0.932-0.414,1.379v91.761C69.358,198.987,69.934,199.459,70.759,198.98z"/>
			<g id="XMLID_00000169554715548165271330000008094574834559065260_" style="opacity:0.2;">
				<path style="fill:#FFFFFF;" d="M139.431,65.733c-0.11-0.706-0.686-0.958-1.385-0.557l-67.284,38.804
					c-0.388,0.227-0.738,0.608-0.991,1.049l-5.464-3.158c0.253-0.421,0.589-0.783,0.965-0.997l67.29-38.803
					c0.771-0.447,2.026-0.453,2.81-0.013l2.667,1.513C138.745,63.972,139.334,64.898,139.431,65.733z"/>
			</g>
			<g>
				<g>
					<path style="fill:#FAFAFA;" d="M70.133,198.688c-0.254,0-0.292-0.324-0.292-0.517v-91.764c0-0.726,0.531-1.646,1.16-2.009
						l67.288-38.802c0.181-0.104,0.309-0.127,0.384-0.127c0.254,0,0.292,0.324,0.292,0.517v91.764c0,0.726-0.531,1.646-1.16,2.009
						l-24.02,13.852l-5.316,19.441c-0.434,1.587-1.385,2.57-2.016,2.57l0,0c-0.259-0.001-0.467-0.193-0.619-0.573l-5.475-13.696
						l-29.843,17.208C70.336,198.666,70.209,198.688,70.133,198.688z"/>
					<path style="fill:#BA68C8;" d="M138.483,66.044v91.707c0,0.545-0.446,1.318-0.917,1.59l-23.849,13.752l-0.345,0.199
						l-0.105,0.384l-5.264,19.248c-0.425,1.555-1.281,2.214-1.55,2.215c-0.02-0.01-0.094-0.082-0.169-0.27l-5.267-13.178
						l-0.414-1.036l-0.967,0.558l-29.31,16.902l0-15.363l0-76.344c0-0.545,0.446-1.317,0.918-1.59L138.483,66.044 M138.674,64.986
						c-0.188,0-0.401,0.062-0.626,0.191L70.759,103.98c-0.774,0.447-1.402,1.534-1.402,2.428l0,76.344l0,15.42
						c0,0.634,0.316,1.001,0.776,1.001c0.188,0,0.401-0.062,0.626-0.192l29.359-16.93l5.267,13.178
						c0.241,0.603,0.629,0.876,1.067,0.876c0.892,0,1.992-1.133,2.483-2.926l5.264-19.248l23.849-13.752
						c0.774-0.447,1.401-1.534,1.401-2.428V65.987C139.45,65.353,139.134,64.986,138.674,64.986L138.674,64.986z"/>
				</g>
			</g>
			<path style="fill:#BA68C8;" d="M106.29,196.097c-0.464-0.01-0.919-0.116-1.228-0.309l-4.507-2.563l-0.116-0.068
				c-0.222-0.145-0.406-0.387-0.542-0.725l-0.029-0.077l-3.298-8.251l3.55-2.051l5.262,13.174
				C105.594,195.749,105.913,196.029,106.29,196.097z"/>
			<path style="opacity:0.2;" d="M106.29,196.097c-0.464-0.01-0.919-0.116-1.228-0.309l-4.507-2.563l-0.116-0.068
				c-0.222-0.145-0.406-0.387-0.542-0.725l-0.029-0.077l-3.298-8.251l3.55-2.051l5.262,13.174
				C105.594,195.749,105.913,196.029,106.29,196.097z"/>
		</g>
		<g>
			<g>
				<g>
					<g>
						<g>
							<path style="fill:#BA68C8;" d="M92.317,108.877v9.682c-4.189,2.418-7.582,8.906-7.582,14.487l-7.262,4.193
								C77.473,126.308,84.118,113.611,92.317,108.877z"/>
						</g>
					</g>
					<g>
						<g>
							<path style="fill:#BA68C8;" d="M86.864,138.84l-5.226,9.746c-2.735-2.196-4.165-6.097-4.165-11.347l7.262-4.193
								C84.735,135.775,85.545,137.778,86.864,138.84z"/>
						</g>
					</g>
					<g>
						<g>
							<path style="fill:#BA68C8;" d="M107.161,120.099c0,10.932-6.645,23.633-14.844,28.366c-4.265,2.462-7.716,2.498-10.679,0.121
								l5.226-9.746c1.374,1.108,3.31,1.175,5.453-0.062c4.189-2.419,7.582-8.902,7.582-14.487c0-5.581-3.393-8.15-7.582-5.732
								v-9.682C100.516,104.144,107.161,109.167,107.161,120.099z"/>
						</g>
					</g>
					<g style="opacity:0.4;">
						<g>
							<path style="fill:#FFFFFF;" d="M107.161,120.099c0,10.932-6.645,23.633-14.844,28.366c-4.265,2.462-7.716,2.498-10.679,0.121
								l5.226-9.746c1.374,1.108,3.31,1.175,5.453-0.062c4.189-2.419,7.582-8.902,7.582-14.487c0-5.581-3.393-8.15-7.582-5.732
								v-9.682C100.516,104.144,107.161,109.167,107.161,120.099z"/>
						</g>
					</g>
					<path style="fill:#BA68C8;" d="M96.271,135.002c-1.152,1.607-2.503,2.939-3.953,3.777c-2.143,1.237-4.079,1.17-5.453,0.062
						c-1.319-1.062-2.129-3.065-2.129-5.794l-7.262,4.193c0,5.25,1.43,9.151,4.165,11.347c2.963,2.377,6.414,2.341,10.679-0.121
						c2.888-1.667,5.575-4.336,7.855-7.556L96.271,135.002z"/>
					<path style="opacity:0.3;" d="M96.271,135.002c-1.152,1.607-2.503,2.939-3.953,3.777c-2.143,1.237-4.079,1.17-5.453,0.062
						c-1.319-1.062-2.129-3.065-2.129-5.794l-7.262,4.193c0,5.25,1.43,9.151,4.165,11.347c2.963,2.377,6.414,2.341,10.679-0.121
						c2.888-1.667,5.575-4.336,7.855-7.556L96.271,135.002z"/>
				</g>
				<g>
					<g>
						<path style="fill:#BA68C8;" d="M116.294,102.864l-4.327,2.497c-0.048,0.028-0.087,0.095-0.087,0.151v4.997
							c0,0.055,0.039,0.078,0.087,0.05l4.327-2.497c0.048-0.028,0.087-0.095,0.087-0.151v-4.997
							C116.381,102.859,116.342,102.836,116.294,102.864z"/>
						<path style="opacity:0.4;fill:#FFFFFF;" d="M116.294,102.864l-4.327,2.497c-0.048,0.028-0.087,0.095-0.087,0.151v4.997
							c0,0.055,0.039,0.078,0.087,0.05l4.327-2.497c0.048-0.028,0.087-0.095,0.087-0.151v-4.997
							C116.381,102.859,116.342,102.836,116.294,102.864z"/>
						<g>
							<path style="fill:#455A64;" d="M119.49,102.802c-0.111,0-0.219-0.058-0.278-0.161c-0.089-0.154-0.035-0.35,0.118-0.438
								l12.118-6.961c0.155-0.09,0.351-0.036,0.438,0.118c0.089,0.154,0.036,0.35-0.118,0.438l-12.118,6.961
								C119.599,102.789,119.544,102.802,119.49,102.802z"/>
						</g>
						<g>
							<path style="fill:#455A64;" d="M119.49,105.559c-0.111,0-0.219-0.058-0.278-0.161c-0.089-0.154-0.035-0.35,0.118-0.438
								L131.448,98c0.155-0.089,0.351-0.035,0.438,0.118c0.089,0.154,0.036,0.35-0.118,0.438l-12.118,6.961
								C119.599,105.546,119.544,105.559,119.49,105.559z"/>
						</g>
					</g>
					<g>
						<path style="fill:#BA68C8;" d="M116.294,113.084l-4.327,2.497c-0.048,0.028-0.087,0.095-0.087,0.151v4.997
							c0,0.055,0.039,0.078,0.087,0.05l4.327-2.497c0.048-0.028,0.087-0.095,0.087-0.151v-4.997
							C116.381,113.079,116.342,113.057,116.294,113.084z"/>
						<g>
							<path style="fill:#455A64;" d="M119.49,113.023c-0.111,0-0.219-0.058-0.278-0.161c-0.089-0.154-0.035-0.35,0.118-0.438
								l12.118-6.961c0.155-0.089,0.351-0.035,0.438,0.118c0.089,0.154,0.036,0.35-0.118,0.438l-12.118,6.961
								C119.599,113.009,119.544,113.023,119.49,113.023z"/>
						</g>
						<g>
							<path style="fill:#455A64;" d="M119.49,115.78c-0.111,0-0.219-0.058-0.278-0.161c-0.089-0.154-0.035-0.35,0.118-0.438
								l12.118-6.961c0.155-0.09,0.351-0.036,0.438,0.118c0.089,0.154,0.036,0.35-0.118,0.438l-12.118,6.961
								C119.599,115.766,119.544,115.78,119.49,115.78z"/>
						</g>
					</g>
					<g>
						<path style="fill:#BA68C8;" d="M116.294,123.305l-4.327,2.497c-0.048,0.028-0.087,0.095-0.087,0.151v4.997
							c0,0.055,0.039,0.078,0.087,0.05l4.327-2.497c0.048-0.028,0.087-0.095,0.087-0.151v-4.997
							C116.381,123.299,116.342,123.277,116.294,123.305z"/>
						<path style="opacity:0.3;" d="M116.294,123.305l-4.327,2.497c-0.048,0.028-0.087,0.095-0.087,0.151v4.997
							c0,0.055,0.039,0.078,0.087,0.05l4.327-2.497c0.048-0.028,0.087-0.095,0.087-0.151v-4.997
							C116.381,123.299,116.342,123.277,116.294,123.305z"/>
						<g>
							<path style="fill:#455A64;" d="M119.49,123.242c-0.111,0-0.219-0.058-0.278-0.161c-0.089-0.153-0.035-0.35,0.118-0.438
								l12.118-6.96c0.155-0.09,0.351-0.035,0.438,0.118c0.089,0.154,0.036,0.35-0.118,0.438l-12.118,6.96
								C119.599,123.229,119.544,123.242,119.49,123.242z"/>
						</g>
						<g>
							<path style="fill:#455A64;" d="M119.49,125.999c-0.111,0-0.219-0.058-0.278-0.161c-0.089-0.154-0.035-0.35,0.118-0.438
								l12.118-6.96c0.155-0.089,0.351-0.036,0.438,0.118c0.089,0.154,0.036,0.35-0.118,0.438l-12.118,6.96
								C119.599,125.986,119.544,125.999,119.49,125.999z"/>
						</g>
					</g>
				</g>
			</g>
			<g>
				<g>
					<path style="fill:#455A64;" d="M77.474,169.668c-0.11,0-0.219-0.058-0.278-0.16c-0.089-0.154-0.036-0.35,0.118-0.439
						l54.134-31.216c0.155-0.086,0.35-0.035,0.439,0.118c0.089,0.154,0.036,0.35-0.118,0.439l-54.134,31.216
						C77.583,169.653,77.528,169.668,77.474,169.668z"/>
				</g>
				<g>
					<path style="fill:#455A64;" d="M77.474,175.261c-0.11,0-0.219-0.058-0.278-0.16c-0.089-0.154-0.036-0.35,0.118-0.439
						l54.134-31.216c0.155-0.085,0.35-0.035,0.439,0.118c0.089,0.154,0.036,0.35-0.118,0.439l-54.134,31.216
						C77.583,175.247,77.528,175.261,77.474,175.261z"/>
				</g>
				<g>
					<path style="fill:#455A64;" d="M77.474,180.855c-0.11,0-0.219-0.058-0.278-0.16c-0.089-0.154-0.036-0.35,0.118-0.439
						l54.134-31.217c0.155-0.088,0.35-0.035,0.439,0.118c0.089,0.154,0.036,0.35-0.118,0.439l-54.134,31.217
						C77.583,180.841,77.528,180.855,77.474,180.855z"/>
				</g>
			</g>
		</g>
	</g>
</g>
<g id="Pencil">
	<g id="Pencil_4_">
		<path id="XMLID_7681_" style="fill:#455A64;" d="M299.12,372.307l-1.663,0.953l-2,1.158l-104.329,60.396
			c0.622-1.396,0.134-4.183-1.291-6.859c-1.66-3.117-4.201-5.582-6.039-5.675l103.796-60.091l3.833-2.199
			C289.026,361.552,296.689,373.841,299.12,372.307z"/>
		<g>
			<path id="XMLID_7680_" style="fill:#EBEBEB;" d="M287.768,362.08l3.715-2.123c1.056-0.651,3.06,1.248,4.814,3.758
				c2.339,3.328,4.236,7.735,2.838,8.6l-2.736,1.57l-0.988,0.543c1.398-0.865-0.497-5.274-2.835-8.603
				c-1.684-2.404-3.61-4.249-4.687-3.803l-0.012,0.007C287.839,362.036,287.804,362.053,287.768,362.08z"/>
			<path id="XMLID_7679_" style="fill:#BA68C8;" d="M288.699,361.558c2.45-1.517,10.098,10.834,7.647,12.351l-3.711,2.137
				c2.449-1.518-5.197-13.866-7.647-12.35L288.699,361.558z"/>
			<path id="XMLID_7678_" style="fill:#EBEBEB;" d="M281.453,365.73l3.663-2.111c2.396-1.507,9.894,10.343,7.863,12.229
				c-0.032,0.037-0.08,0.069-0.127,0.102l-3.707,2.097C291.547,376.486,283.885,364.197,281.453,365.73z"/>
		</g>
		<path style="fill:#F28F8F;" d="M291.431,359.966c-0.001,0.027-0.001,0.027-0.001,0.027l0.054-0.024
			c1.049-0.675,3.049,1.238,4.807,3.756c2.313,3.266,4.202,7.584,2.9,8.541l15.485-8.899c1.244-0.853,1.527-2.367,1.204-4.041
			c-0.863-4.511-6.141-10.243-9.486-7.961L291.431,359.966z"/>
		<g>
			<path id="XMLID_7655_" style="fill:#F28F8F;" d="M173.917,435.391c1.279,1.733,1.152,2.583,1.152,2.583l16.057-3.16
				c1.596-2.434,0.547-6.384-1.659-9.201l-0.704,0.397L173.917,435.391z"/>
			<path id="XMLID_7652_" style="fill:#37474F;" d="M170.7,438.833l4.369-0.86c0,0,0.198-0.846-1.152-2.583l-3.812,2.409l0,0
				c-0.248,0.282-0.185,0.661,0.042,0.877C170.283,438.806,170.478,438.878,170.7,438.833z"/>
			<path id="XMLID_7650_" style="fill:#FFA8A7;" d="M183.81,422.273l-0.012,0.007l0,0l-0.005-0.008l-11.014,12.496
				c0.432,0.074,0.848,0.294,1.139,0.623l14.846-9.381l0.704-0.397C187.963,423.69,185.92,422.298,183.81,422.273z"/>
			<path id="XMLID_7649_" style="fill:#455A64;" d="M173.917,435.391c-0.299-0.436-0.924-0.663-1.139-0.623l-2.673,3.031
				L173.917,435.391z"/>
		</g>
		<path style="opacity:0.2;" d="M189.468,425.613l124.846-70.05c0.761,1.222,1.329,2.536,1.561,3.762
			c0.331,1.683,0.039,3.181-1.206,4.038l-15.549,8.944l-1.662,0.953l-2.001,1.158l-104.329,60.396
			C193.083,431.793,190.937,427.329,189.468,425.613z"/>
	</g>
</g>
<g id="Speech_Bubble">
	<g id="Speech_Bubble_00000044167089215145546900000007117693652714822067_">
		<path style="fill:#BA68C8;" d="M382.738,64.707c5.138-7.479,18.873-13.683,35.856-13.843c15.448-0.146,34.252,4.396,38.951,19.239
			c4.008,12.658-8.331,24.42-21.142,26.924c-5.557,1.086-10.733,1.554-15.461,1.634c-2.374,4.435-7.944,7.162-12.137,7.446
			c2.167-2.568,2.736-5.529,2.783-7.799c-4.723-0.444-8.737-1.222-11.87-2.005C377.479,90.743,376.99,73.076,382.738,64.707z"/>
		<path style="opacity:0.4;fill:#FFFFFF;" d="M382.738,64.707c5.138-7.479,18.873-13.683,35.856-13.843
			c15.448-0.146,34.252,4.396,38.951,19.239c4.008,12.658-8.331,24.42-21.142,26.924c-5.557,1.086-10.733,1.554-15.461,1.634
			c-2.374,4.435-7.944,7.162-12.137,7.446c2.167-2.568,2.736-5.529,2.783-7.799c-4.723-0.444-8.737-1.222-11.87-2.005
			C377.479,90.743,376.99,73.076,382.738,64.707z"/>
		<path style="fill:#FFFFFF;" d="M435.966,74.63c0,2.547,2.065,4.612,4.612,4.612c2.547,0,4.612-2.065,4.612-4.612
			c0-2.547-2.065-4.612-4.612-4.612C438.031,70.018,435.966,72.082,435.966,74.63z M414.367,74.63c0,2.547,2.065,4.612,4.612,4.612
			c2.547,0,4.612-2.065,4.612-4.612c0-2.547-2.065-4.612-4.612-4.612C416.432,70.018,414.367,72.082,414.367,74.63z M392.767,74.63
			c0,2.547,2.065,4.612,4.612,4.612c2.547,0,4.612-2.065,4.612-4.612c0-2.547-2.065-4.612-4.612-4.612
			C394.832,70.018,392.767,72.082,392.767,74.63z"/>
	</g>
</g>
</svg>
