<svg width="28" height="28" viewBox="0 0 28 28" fill="none" xmlns="http://www.w3.org/2000/svg">
<g clip-path="url(#clip0_95_5233)">
<path d="M14.0017 14.5397C18.0018 14.5397 21.2716 11.2699 21.2716 7.26985C21.2716 3.26983 18.0018 0 14.0017 0C10.0017 0 6.73193 3.26983 6.73193 7.26985C6.73193 11.2699 10.0018 14.5397 14.0017 14.5397Z" fill="#616469"/>
<path d="M26.4781 20.3492C26.2876 19.873 26.0337 19.4286 25.7479 19.0159C24.2876 16.8571 22.0337 15.4286 19.494 15.0793C19.1766 15.0476 18.8274 15.1111 18.5734 15.3016C17.24 16.2857 15.6528 16.7936 14.0019 16.7936C12.3511 16.7936 10.7638 16.2857 9.43047 15.3016C9.17648 15.1111 8.82727 15.0158 8.50984 15.0793C5.97015 15.4286 3.68446 16.8571 2.2559 19.0159C1.97019 19.4286 1.7162 19.9048 1.52576 20.3492C1.43054 20.5397 1.46226 20.7619 1.55748 20.9524C1.81147 21.3968 2.1289 21.8413 2.41462 22.2223C2.85904 22.8255 3.33525 23.3651 3.87495 23.873C4.31938 24.3175 4.82731 24.7302 5.33529 25.1429C7.8432 27.0159 10.8591 28 13.9702 28C17.0813 28 20.0972 27.0159 22.6051 25.1429C23.113 24.762 23.621 24.3175 24.0655 23.873C24.5734 23.3651 25.0813 22.8254 25.5258 22.2223C25.8432 21.8096 26.129 21.3968 26.3829 20.9524C26.5416 20.7619 26.5733 20.5397 26.4781 20.3492Z" fill="#616469"/>
</g>
<defs>
<clipPath id="clip0_95_5233">
<rect width="28" height="28" fill="white"/>
</clipPath>
</defs>
</svg>
