<svg width="28" height="28" viewBox="0 0 28 28" fill="none" xmlns="http://www.w3.org/2000/svg">
<path d="M14.8386 2.33344C15.7208 2.33344 16.5197 2.82344 16.9608 3.54677C17.1754 3.89677 17.3185 4.32844 17.2827 4.78344C17.2589 5.13344 17.3662 5.48344 17.557 5.8101C18.165 6.80177 19.5123 7.1751 20.5615 6.6151C21.7419 5.93844 23.2322 6.34677 23.9118 7.50177L24.7107 8.87844C25.4022 10.0334 25.0207 11.5151 23.8284 12.1801C22.8149 12.7751 22.4572 14.0934 23.0653 15.0968C23.2561 15.4118 23.4707 15.6801 23.8045 15.8434C24.2218 16.0651 24.5437 16.4151 24.7703 16.7651C25.2114 17.4884 25.1757 18.3751 24.7464 19.1568L23.9118 20.5568C23.4707 21.3034 22.648 21.7701 21.8015 21.7701C21.3842 21.7701 20.9192 21.6534 20.5377 21.4201C20.2277 21.2218 19.87 21.1518 19.4885 21.1518C18.3081 21.1518 17.3185 22.1201 17.2827 23.2751C17.2827 24.6168 16.1858 25.6668 14.8147 25.6668H13.1932C11.8102 25.6668 10.7133 24.6168 10.7133 23.2751C10.6894 22.1201 9.69981 21.1518 8.51945 21.1518C8.126 21.1518 7.76831 21.2218 7.47024 21.4201C7.08871 21.6534 6.6118 21.7701 6.20642 21.7701C5.34798 21.7701 4.5253 21.3034 4.08416 20.5568L3.26148 19.1568C2.82034 18.3984 2.79649 17.4884 3.23763 16.7651C3.4284 16.4151 3.78608 16.0651 4.19146 15.8434C4.5253 15.6801 4.73991 15.4118 4.9426 15.0968C5.53874 14.0934 5.18106 12.7751 4.16762 12.1801C2.98725 11.5151 2.60572 10.0334 3.28533 8.87844L4.08416 7.50177C4.77568 6.34677 6.25411 5.93844 7.44639 6.6151C8.48368 7.1751 9.83096 6.80177 10.439 5.8101C10.6298 5.48344 10.7371 5.13344 10.7133 4.78344C10.6894 4.32844 10.8206 3.89677 11.0471 3.54677C11.4882 2.82344 12.2871 2.35677 13.1574 2.33344H14.8386ZM14.0159 10.7101C12.144 10.7101 10.6298 12.1801 10.6298 14.0118C10.6298 15.8434 12.144 17.3018 14.0159 17.3018C15.8878 17.3018 17.3662 15.8434 17.3662 14.0118C17.3662 12.1801 15.8878 10.7101 14.0159 10.7101Z" fill="#616469"/>
</svg>
