<svg width="28" height="28" viewBox="0 0 28 28" fill="none" xmlns="http://www.w3.org/2000/svg">
<g clip-path="url(#clip0_95_5246)">
<path d="M27.927 10.7406C27.7437 10.1737 27.2408 9.77099 26.6459 9.71737L18.5643 8.98355L15.3686 1.50378C15.133 0.955606 14.5964 0.600769 14.0001 0.600769C13.4039 0.600769 12.8673 0.955606 12.6316 1.50506L9.43597 8.98355L1.35312 9.71737C0.759232 9.77227 0.257633 10.1737 0.0732711 10.7406C-0.11109 11.3076 0.0591716 11.9295 0.508432 12.3215L6.61714 17.6789L4.81582 25.6137C4.68402 26.1971 4.91046 26.8002 5.39454 27.1501C5.65474 27.3381 5.95916 27.4338 6.26615 27.4338C6.53083 27.4338 6.79338 27.3624 7.02902 27.2214L14.0001 23.0551L20.9687 27.2214C21.4786 27.5282 22.1214 27.5002 22.6045 27.1501C23.0888 26.7991 23.315 26.1958 23.1832 25.6137L21.3819 17.6789L27.4906 12.3226C27.9398 11.9295 28.1114 11.3087 27.927 10.7406Z" fill="#616469"/>
</g>
<defs>
<clipPath id="clip0_95_5246">
<rect width="28" height="28" fill="white"/>
</clipPath>
</defs>
</svg>
