<svg width="28" height="28" viewBox="0 0 28 28" fill="none" xmlns="http://www.w3.org/2000/svg">
<path d="M23.4819 3.78871H18.0116L17.5831 2.93624C17.3979 2.56453 17.0182 2.32964 16.603 2.32996H11.3926C10.978 2.32838 10.5991 2.56388 10.417 2.93624L9.98853 3.78871H4.51819C4.11539 3.78871 3.78882 4.11529 3.78882 4.51809V5.97684C3.78882 6.37964 4.11539 6.70621 4.51819 6.70621H23.4819C23.8847 6.70621 24.2113 6.37964 24.2113 5.97684V4.51809C24.2113 4.11529 23.8847 3.78871 23.4819 3.78871Z" fill="#616469"/>
<path d="M6.21397 23.6186C6.28619 24.7716 7.24229 25.6698 8.39752 25.67H19.6026C20.7578 25.6698 21.714 24.7716 21.7861 23.6186L22.7526 8.16498H5.24756L6.21397 23.6186Z" fill="#616469"/>
</svg>
