<?xml version="1.0" encoding="utf-8"?>
<!-- Generator: Adobe Illustrator 27.5.0, SVG Export Plug-In . SVG Version: 6.00 Build 0)  -->
<svg version="1.1" xmlns="http://www.w3.org/2000/svg" xmlns:xlink="http://www.w3.org/1999/xlink" x="0px" y="0px"
	 viewBox="0 0 500 500" style="enable-background:new 0 0 500 500;" xml:space="preserve">
<g id="Background_Complete">
	<g>
		<g>
			<rect x="49.693" y="29.529" style="fill:#E0E0E0;" width="91.761" height="151.89"/>
		</g>
		<g>
			<rect x="46.641" y="29.529" style="fill:#EBEBEB;" width="91.761" height="151.89"/>
		</g>
		<g>
			<rect x="50.548" y="32.609" style="fill:#FAFAFA;" width="83.946" height="145.73"/>
		</g>
		<g>
			<g>
				<rect x="66.53" y="51.545" style="fill:#EBEBEB;" width="51.62" height="107.857"/>
			</g>
			<g>
				<path style="fill:#E0E0E0;" d="M66.53,121.235c-0.119-10.075,8.94-19.911,18.917-21.318c4.758-0.671,9.812,0.273,14.258-1.549
					c7.935-3.254,10.46-13.796,18.445-16.923l0.365,77.957H66.53V121.235z"/>
			</g>
		</g>
	</g>
	<g>
		<g>
			<g>
				<g>
					<g>
						<g>
							
								<rect x="271.562" y="83.253" transform="matrix(1 -0.0054 0.0054 1 -0.5487 1.4767)" style="fill:#E0E0E0;" width="8.033" height="39.971"/>
						</g>
					</g>
				</g>
			</g>
		</g>
		<g>
			<g>
				<g>
					<g>
						<g>
							<g>
								
									<rect x="201.924" y="83.392" transform="matrix(1 -0.0054 0.0054 1 -0.5022 1.1374)" style="fill:#EBEBEB;" width="20.802" height="22.067"/>
							</g>
						</g>
					</g>
				</g>
			</g>
			<g>
				<g>
					<g>
						<g>
							<g>
								
									<rect x="222.627" y="83.281" transform="matrix(1 -0.0054 0.0054 1 -0.5013 1.2482)" style="fill:#F5F5F5;" width="20.802" height="22.067"/>
							</g>
						</g>
					</g>
				</g>
			</g>
			<g>
				<g>
					<g>
						<g>
							<g>
								<g>
									<path style="fill:#E0E0E0;" d="M201.897,89.541c13.824,0.114,27.682,0.034,41.505-0.191
										c0.284-0.004,0.283-0.44-0.003-0.442c-13.824-0.076-27.683-0.008-41.504,0.254
										C201.651,89.167,201.653,89.539,201.897,89.541L201.897,89.541z"/>
								</g>
							</g>
						</g>
					</g>
				</g>
			</g>
		</g>
		<g>
			<g>
				<g>
					<g>
						<g>
							<g>
								
									<rect x="188.943" y="105.135" transform="matrix(1 -0.0054 0.0054 1 -0.6082 1.1147)" style="fill:#EBEBEB;" width="37.794" height="17.983"/>
							</g>
						</g>
					</g>
				</g>
			</g>
			<g>
				<g>
					<g>
						<g>
							<g>
								
									<rect x="226.557" y="104.934" transform="matrix(1 -0.0054 0.0054 1 -0.6069 1.3168)" style="fill:#F5F5F5;" width="37.794" height="17.982"/>
							</g>
						</g>
					</g>
				</g>
			</g>
			<g>
				<g>
					<g>
						<g>
							<g>
								<g>
									<path style="fill:#E0E0E0;" d="M188.922,110.238c25.107,0.284,50.302,0.029,75.408-0.372
										c0.285-0.005,0.283-0.441-0.002-0.442c-25.109-0.133-50.305-0.118-75.407,0.435
										C188.676,109.864,188.678,110.235,188.922,110.238L188.922,110.238z"/>
								</g>
							</g>
						</g>
					</g>
				</g>
			</g>
		</g>
		<g>
			<g>
				<g>
					<g>
						<g>
							<rect x="174.788" y="123.219" style="fill:#E0E0E0;" width="146.423" height="6.442"/>
						</g>
					</g>
				</g>
			</g>
			<g>
				<g>
					<g>
						<g>
							<rect x="198.761" y="126.316" style="fill:#E0E0E0;" width="5.944" height="21.983"/>
						</g>
					</g>
				</g>
			</g>
			<g>
				<g>
					<g>
						<g>
							<rect x="287.493" y="126.316" style="fill:#E0E0E0;" width="5.944" height="21.983"/>
						</g>
					</g>
				</g>
			</g>
		</g>
		<g>
			<g>
				<g>
					<g>
						<g>
							
								<rect x="279.44" y="68.348" transform="matrix(1 -0.0054 0.0054 1 -0.5089 1.5187)" style="fill:#EBEBEB;" width="8.033" height="54.974"/>
						</g>
					</g>
				</g>
			</g>
		</g>
		<g>
			<g>
				<g>
					<g>
						<g>
							<g>
								
									<rect x="287.515" y="78.593" transform="matrix(1 -0.0054 0.0054 1 -0.5372 1.5783)" style="fill:#F5F5F5;" width="12.482" height="44.55"/>
							</g>
						</g>
					</g>
				</g>
			</g>
			<g>
				<g>
					<g>
						<g>
							<g>
								<path style="fill:#E0E0E0;" d="M299.793,87.143c0,0.119-2.794,0.216-6.241,0.216c-3.447,0-6.241-0.097-6.241-0.216
									s2.794-0.216,6.241-0.216C296.999,86.927,299.793,87.023,299.793,87.143z"/>
							</g>
						</g>
					</g>
				</g>
			</g>
			<g>
				<g>
					<g>
						<g>
							<g>
								<path style="fill:#E0E0E0;" d="M299.793,85.271c0,0.119-2.794,0.216-6.241,0.216c-3.447,0-6.241-0.097-6.241-0.216
									c0-0.119,2.794-0.216,6.241-0.216C296.999,85.055,299.793,85.152,299.793,85.271z"/>
							</g>
						</g>
					</g>
				</g>
			</g>
			<g>
				<g>
					<g>
						<g>
							<g>
								<path style="fill:#E0E0E0;" d="M299.793,116.407c0,0.119-2.794,0.216-6.241,0.216c-3.447,0-6.241-0.097-6.241-0.216
									s2.794-0.216,6.241-0.216C296.999,116.19,299.793,116.287,299.793,116.407z"/>
							</g>
						</g>
					</g>
				</g>
			</g>
			<g>
				<g>
					<g>
						<g>
							<g>
								<path style="fill:#E0E0E0;" d="M299.793,114.535c0,0.119-2.794,0.216-6.241,0.216c-3.447,0-6.241-0.097-6.241-0.216
									s2.794-0.216,6.241-0.216C296.999,114.319,299.793,114.416,299.793,114.535z"/>
							</g>
						</g>
					</g>
				</g>
			</g>
			<g>
				<g>
					<g>
						<g>
							<g>
								<path style="fill:#E0E0E0;" d="M293.753,110.452c-0.12,0-0.216-4.495-0.216-10.038c0-5.545,0.097-10.039,0.216-10.039
									c0.119,0,0.216,4.494,0.216,10.039C293.97,105.957,293.873,110.452,293.753,110.452z"/>
							</g>
						</g>
					</g>
				</g>
			</g>
		</g>
		<g>
			<g>
				<g>
					<g>
						<g>
							<rect x="299.928" y="89.5" style="fill:#EBEBEB;" width="13.586" height="33.626"/>
						</g>
					</g>
				</g>
			</g>
		</g>
		<g>
			<g>
				<g>
					<g>
						<path style="fill:#E0E0E0;" d="M285.5,77.712c0,1.275-1.034,2.309-2.309,2.309c-1.275,0-2.309-1.034-2.309-2.309
							s1.034-2.309,2.309-2.309C284.466,75.404,285.5,76.437,285.5,77.712z"/>
					</g>
				</g>
			</g>
		</g>
		<g>
			<g>
				<g>
					<g>
						<rect x="282.478" y="84.062" style="fill:#E0E0E0;" width="1.427" height="32.703"/>
					</g>
				</g>
			</g>
		</g>
	</g>
	<g>
		<g>
			<g>
				<path style="fill:#E0E0E0;" d="M383.563,372.168c-4.476-2.811-9.604-4.576-14.862-5.116c-2.428-0.249-5.082-0.179-7.03,1.293
					c-0.413,0.312-0.816,0.774-0.724,1.284c0.068,0.375,0.385,0.647,0.688,0.878C367.681,375.12,376.828,375.703,383.563,372.168"/>
			</g>
			<g>
				<path style="fill:#E0E0E0;" d="M383.181,371.748c-3.365-2.626-6.749-5.27-9.599-8.446c-2.85-3.177-5.167-6.948-6.018-11.13
					c-0.258-1.269-0.338-2.718,0.476-3.724C375.691,354.423,381.702,362.152,383.181,371.748"/>
			</g>
			<g>
				<path style="fill:#E0E0E0;" d="M383.483,372.111c-0.576-4.186-0.783-8.488,0.178-12.603c0.961-4.115,3.2-8.053,6.713-10.4
					c1.323,3.091,0.754,6.651-0.177,9.881c-1.44,4.991-3.698,9.745-6.657,14.015"/>
			</g>
			<g>
				<path style="fill:#E0E0E0;" d="M390.984,385.551c-4.553,0.553-8.519,2.954-11.919,6.032c-3.4,3.079-5.817,7.227-6.818,11.704
					c4.467-0.276,8.255-3.426,11.004-6.957c2.748-3.531,4.652-7.407,7.671-10.71"/>
			</g>
			<g>
				<path style="fill:#E0E0E0;" d="M392.613,387.701c-3.668-9.034-2.339-19.92,3.394-27.807
					C398.602,369.122,397.649,379.545,392.613,387.701"/>
			</g>
			<g>
				<path style="fill:#E0E0E0;" d="M402.524,399.502c-4.132-0.257-8.334,0.728-11.922,2.793c-3.588,2.066-6.549,5.204-8.403,8.906
					c-0.252,0.503-0.474,1.143-0.137,1.594c0.293,0.392,0.86,0.428,1.348,0.396c4.006-0.26,7.556-2.67,10.485-5.414
					c2.929-2.744,5.481-5.914,8.719-8.288"/>
			</g>
			<g>
				<path style="fill:#E0E0E0;" d="M402.208,398.859c-2.132-6.821-2.264-14.253-0.378-21.146c0.745-2.722,1.996-5.587,4.513-6.864
					c0.215-0.109,0.465-0.206,0.69-0.121c0.214,0.08,0.338,0.299,0.436,0.505c0.895,1.871,1.156,3.995,1.064,6.067
					c-0.092,2.072-0.522,4.112-0.951,6.141c-0.793,3.754-1.214,7.787-3.273,11.024c-0.489,0.768-0.919,1.598-1.309,2.421
					c-0.39,0.823-0.393,1.113-0.75,1.767"/>
			</g>
			<g>
				<path style="fill:#E0E0E0;" d="M428.443,402.768c-1.944-7.393,0.12-16.356,4.778-22.417c0.343-0.446,0.798-0.925,1.358-0.873
					c0.858,0.079,1.08,1.223,1.042,2.084C435.285,389.117,432.764,396.562,428.443,402.768"/>
			</g>
			<g>
				<path style="fill:#E0E0E0;" d="M430.808,404.385c8.982,2.337,19.287,0.065,26.758-5.442c-4.428-2.244-9.647-2.884-14.485-1.778
					C438.242,398.272,433.82,400.44,430.808,404.385"/>
			</g>
			<g>
				<path style="fill:#E0E0E0;" d="M432.803,399.462c5.031-8.202,14.675-13.555,24.285-14.042c-1.107,3.908-4.319,6.946-7.943,8.782
					s-7.669,2.635-11.657,3.409C435.936,397.912,433.808,398.243,432.803,399.462"/>
			</g>
			<g>
				<path style="fill:#E0E0E0;" d="M428.943,375.575c1.362-4.667,2.732-9.375,3.106-14.223c0.374-4.847-0.317-9.908-2.833-14.068
					c-4.699,9.093-5.175,19.717-0.414,28.778"/>
			</g>
			<g>
				<path style="fill:#E0E0E0;" d="M444.763,367.579c5.496-9.988,16.707-17.966,28.052-19.084
					C468.439,359.392,456.504,367.813,444.763,367.579"/>
			</g>
			<g>
				<path style="fill:#E0E0E0;" d="M441.306,369.536c8.196,1.248,15.178,6.483,22.837,9.656c1.638,0.679,3.405,1.219,5.163,0.989
					c1.758-0.23,3.492-1.41,3.886-3.138c0.327-1.435-0.326-2.959-1.356-4.011c-1.03-1.052-2.391-1.709-3.75-2.275
					c-8.342-3.473-17.288-3.56-26.075-1.453"/>
			</g>
			<g>
				<path style="fill:#E0E0E0;" d="M436.564,375.284c1.855,0.531,2.489,1.492,3.959,2.743c4.985,4.246,10.963,7.317,17.317,8.896
					c0.661,0.164,1.529,0.23,1.857-0.368c0.286-0.522-0.076-1.154-0.448-1.619c-2.663-3.331-6.46-5.61-10.456-7.098
					c-3.997-1.488-7.459-3.282-12.229-2.897"/>
			</g>
			<g>
				<path style="fill:#E0E0E0;" d="M431.212,340.567c6.664,6.221,16.051,9.414,25.126,8.549c0.413-0.039,0.863-0.105,1.144-0.411
					c0.632-0.688-0.126-1.75-0.863-2.324C449.232,340.621,440.284,338.233,431.212,340.567"/>
			</g>
			<g>
				<path style="fill:#E0E0E0;" d="M437.557,338.245c8.809-6.605,20.889-8.598,31.353-5.173c-3.949,3.892-9.427,5.985-14.941,6.559
					C448.456,340.205,442.934,339.593,437.557,338.245"/>
			</g>
			<g>
				<path style="fill:#E0E0E0;" d="M435.035,322.292c-0.726-7.373-0.255-13.194-0.767-20.602c-0.041-0.592-0.168-1.304-0.722-1.517
					c-0.771-0.297-1.414,0.651-1.667,1.437c-2.195,6.829-0.995,14.661,3.144,20.52"/>
			</g>
			<g>
				<path style="fill:#E0E0E0;" d="M434.505,323.106c4.998-3.091,8.747-7.127,12.214-11.871c2.412-3.301,4.446-7.255,3.898-11.307
					c-3.388-0.068-6.607,1.801-8.811,4.375c-2.203,2.574-3.513,5.792-4.491,9.036C436.337,316.584,435.652,319.918,434.505,323.106"
					/>
			</g>
			<g>
				<path style="fill:#E0E0E0;" d="M446.505,319.772c10.968-4.056,21.201-10.09,30.059-17.724
					c-3.591-1.446-7.701-0.581-11.291,0.868c-8.201,3.311-14.902,8.899-18.924,16.776"/>
			</g>
			<g>
				<path style="fill:#E0E0E0;" d="M437.879,327.14c5.549,0.607,11.185,1.002,16.691,0.081c5.411-0.904,10.525-3.049,15.582-5.177
					c0.419-0.176,0.875-0.388,1.059-0.804c0.199-0.452-0.013-1.002-0.38-1.333c-0.366-0.331-0.853-0.49-1.329-0.623
					c-5.497-1.538-11.43-0.818-16.839,1.006C447.254,322.115,442.819,324.281,437.879,327.14"/>
			</g>
			<g>
				<path style="fill:#E0E0E0;" d="M406.195,340.819c-3.786-7.642-3.54-16.559-0.27-24.435c2.302,3.508,2.583,7.975,2.162,12.149
					c-0.421,4.175-1.692,8.471-1.774,12.666"/>
			</g>
			<g>
				<path style="fill:#E0E0E0;" d="M391.071,333.191c-9.452-0.181-18.907,3.847-25.325,10.788c4.717,0.741,9.576-0.476,13.867-2.571
					c4.291-2.095,8.104-5.035,11.884-7.954"/>
			</g>
			<g>
				<path style="fill:#E0E0E0;" d="M380.903,329.791c-4.624-0.375-9.073-0.947-13.519,0.415c-4.446,1.362-8.492,4.455-10.304,8.737
					c4.325,0.487,8.71-0.597,12.674-2.393C373.718,334.753,377.323,332.265,380.903,329.791"/>
			</g>
			<g>
				<path style="fill:#E0E0E0;" d="M395.958,329.946c-4.16-2.726-8.431-5.501-13.275-6.63c-4.843-1.129-10.456-0.295-13.834,3.356
					c3.921,2.301,8.678,2.573,13.223,2.569c4.546-0.004,10.119-0.055,14.404,1.462"/>
			</g>
			<g>
				<path style="fill:#E0E0E0;" d="M395.983,330.166c-7.112-6.983-9.807-19.528-6.946-29.075
					C394.626,309.585,397.13,320.063,395.983,330.166"/>
			</g>
			<g>
				<path style="fill:#E0E0E0;" d="M415.537,310.38c1.341-3.118,2.285-6.39,3.488-9.564c1.203-3.174,2.699-6.297,4.973-8.817
					c2.274-2.52,5.418-4.397,8.808-4.565c-2.122,9.609-8.504,18.194-17.094,22.996"/>
			</g>
			<g>
				<path style="fill:#E0E0E0;" d="M411.999,314.503c-2.219-3.055-4.784-7.202-7.793-9.482c-3.01-2.28-6.929-3.66-10.602-2.784
					C397.339,308.915,404.398,313.622,411.999,314.503"/>
			</g>
			<g>
				<path style="fill:#E0E0E0;" d="M412.707,310.635c-1.455-3.697-2.92-7.432-3.508-11.361c-0.588-3.929-0.23-8.125,1.779-11.552
					c3.904,7.379,5.161,15.3,1.929,22.997"/>
			</g>
			<g>
				<path style="fill:#E0E0E0;" d="M415.573,287.721c2.211-7.315,8.909-12.701,16.141-15.173c0.912-0.312,1.878-0.571,2.83-0.424
					c0.952,0.147,1.886,0.798,2.086,1.741c0.264,1.244-0.764,2.359-1.731,3.186C429.267,281.866,422.648,285.521,415.573,287.721"/>
			</g>
			<g>
				<path style="fill:#E0E0E0;" d="M415.653,281.739c0.281-4.717,0.575-9.501,2.109-13.97c1.534-4.469,4.491-8.661,8.792-10.617
					c0.732,4.764-1.37,9.503-3.905,13.602c-2.535,4.099-5.59,7.968-7.112,12.541"/>
			</g>
			<g>
				<path style="fill:#E0E0E0;" d="M415.537,284.985c-1.827-5.331-2.016-12.103-5.209-16.747c-2.231-3.247-5.805-5.458-7.728-8.897
					c-1.277,3.211-0.886,6.912,0.45,10.1c1.336,3.188,3.543,5.932,5.906,8.455C411.318,280.419,413.341,282.316,415.537,284.985"/>
			</g>
			<g>
				<g>
					<path style="fill:#E0E0E0;" d="M415.573,441.983c-0.142,0-0.265-35.564-0.275-79.424c-0.01-43.875,0.097-79.432,0.239-79.432
						c0.142,0,0.265,35.556,0.275,79.432C415.822,406.419,415.715,441.983,415.573,441.983z"/>
				</g>
			</g>
			<g>
				<g>
					<path style="fill:#E0E0E0;" d="M446.652,335.453c0.01,0.034-0.467,0.211-1.337,0.502c-0.961,0.324-2.197,0.741-3.68,1.242
						c-3.103,1.057-7.365,2.588-11.991,4.483c-4.581,1.965-8.9,3.56-11.361,5.692c-1.229,1.052-1.934,2.19-2.283,3.02
						c-0.353,0.835-0.416,1.346-0.463,1.337c-0.017-0.003-0.012-0.13,0.015-0.373c0.041-0.24,0.103-0.598,0.261-1.036
						c0.3-0.877,0.986-2.094,2.228-3.219c1.236-1.127,2.957-2.14,4.929-3.062c1.972-0.92,4.157-1.88,6.478-2.834
						c4.64-1.902,8.936-3.383,12.074-4.354c1.568-0.489,2.848-0.85,3.735-1.087C446.146,335.531,446.642,335.418,446.652,335.453z"
						/>
				</g>
			</g>
			<g>
				<g>
					<path style="fill:#E0E0E0;" d="M456.839,310.43c0.012,0.013-0.118,0.151-0.375,0.4c-0.303,0.284-0.68,0.639-1.141,1.072
						c-1.06,0.963-2.502,2.273-4.26,3.87c-3.679,3.275-8.667,7.717-14.18,12.626c-5.535,4.927-10.319,9.635-13.634,13.179
						c-1.66,1.77-2.967,3.237-3.859,4.26c-0.416,0.475-0.757,0.865-1.03,1.177c-0.239,0.267-0.371,0.401-0.385,0.39
						c-0.014-0.011,0.091-0.168,0.304-0.455c0.215-0.286,0.529-0.712,0.957-1.24c0.846-1.065,2.115-2.572,3.745-4.378
						c3.255-3.617,8.013-8.38,13.559-13.317c5.554-4.916,10.609-9.331,14.282-12.515c1.803-1.547,3.281-2.815,4.368-3.748
						c0.487-0.404,0.885-0.734,1.205-1C456.675,310.528,456.827,310.417,456.839,310.43z"/>
				</g>
			</g>
			<g>
				<g>
					<path style="fill:#E0E0E0;" d="M430.907,333.408c-0.145-0.065,1.011-2.734,2.163-6.111c1.163-3.376,1.71-6.225,1.857-6.201
						c0.134,0.014-0.193,2.946-1.371,6.366c-0.579,1.707-1.219,3.208-1.722,4.274C431.332,332.802,430.97,333.436,430.907,333.408z"
						/>
				</g>
			</g>
			<g>
				<g>
					<path style="fill:#E0E0E0;" d="M415.606,354.934c-0.029,0.021-0.331-0.333-0.853-0.99c-0.579-0.742-1.311-1.681-2.185-2.802
						c-1.835-2.372-4.373-5.647-7.217-9.231c-2.846-3.584-5.46-6.799-7.354-9.125c-0.893-1.105-1.642-2.032-2.233-2.764
						c-0.522-0.658-0.797-1.032-0.77-1.055c0.027-0.023,0.354,0.307,0.923,0.926c0.57,0.617,1.376,1.526,2.359,2.66
						c1.967,2.268,4.628,5.451,7.478,9.039c2.847,3.588,5.342,6.903,7.105,9.333c0.882,1.215,1.583,2.207,2.055,2.901
						C415.386,354.519,415.634,354.913,415.606,354.934z"/>
				</g>
			</g>
			<g>
				<g>
					<path style="fill:#E0E0E0;" d="M408.791,346.185c-0.084,0.09-1.902-2.067-2.855-5.344c-0.703-2.31-0.734-4.422-0.647-5.388
						l0.227,0.018c-0.102,0.412-0.176,0.629-0.216,0.622c-0.04-0.007-0.043-0.236-0.009-0.659l0.227,0.019
						c0.083,0.958,0.228,2.998,0.912,5.242C407.349,343.87,408.929,346.098,408.791,346.185z"/>
				</g>
			</g>
			<g>
				<g>
					<path style="fill:#E0E0E0;" d="M399.994,335.119c-0.066,0.071-0.651-0.666-1.993-1.158c-1.332-0.515-3.335-0.628-5.534-0.44
						c-2.201,0.161-4.166,0.554-5.573,0.899c-1.407,0.349-2.267,0.622-2.293,0.55c-0.023-0.061,0.795-0.457,2.196-0.9
						c1.398-0.44,3.391-0.897,5.632-1.062c2.223-0.192,4.332-0.021,5.709,0.616C399.532,334.242,400.04,335.107,399.994,335.119z"/>
				</g>
			</g>
			<g>
				<g>
					<path style="fill:#E0E0E0;" d="M397.908,332.437c-0.039,0.08-1.161-0.465-3.054-1.112c-1.889-0.65-4.58-1.332-7.619-1.568
						c-3.04-0.227-5.804,0.039-7.77,0.395c-1.969,0.352-3.16,0.721-3.187,0.636c-0.011-0.034,0.277-0.155,0.81-0.345
						c0.53-0.198,1.319-0.424,2.306-0.648c1.972-0.452,4.785-0.782,7.88-0.551c3.093,0.241,5.823,0.993,7.704,1.739
						c0.942,0.371,1.687,0.714,2.181,0.99C397.658,332.242,397.924,332.405,397.908,332.437z"/>
				</g>
			</g>
			<g>
				<g>
					<path style="fill:#E0E0E0;" d="M415.537,321.096c-0.137,0.035-1.135-3.429-2.227-7.736c-1.093-4.308-1.866-7.828-1.729-7.863
						c0.137-0.035,1.134,3.428,2.227,7.736C414.901,317.54,415.675,321.061,415.537,321.096z"/>
				</g>
			</g>
			<g>
				<g>
					<path style="fill:#E0E0E0;" d="M415.679,321.096c-0.153,0.05-0.794-2.265-2.468-4.631c-1.629-2.417-3.709-3.629-3.633-3.749
						c0.027-0.054,0.601,0.157,1.402,0.723c0.803,0.559,1.796,1.506,2.651,2.731C415.369,318.632,415.804,321.087,415.679,321.096z"
						/>
				</g>
			</g>
			<g>
				<g>
					<path style="fill:#E0E0E0;" d="M415.573,423.025c-0.056,0.008-0.16-0.855-0.561-2.365c-0.396-1.51-1.142-3.652-2.376-6.157
						c-2.457-5.021-6.928-11.388-12.609-17.764c-2.815-3.216-5.546-6.25-7.865-9.156c-2.322-2.901-4.23-5.666-5.624-8.111
						c-1.398-2.443-2.308-4.54-2.839-6.019c-0.261-0.742-0.452-1.321-0.557-1.721c-0.113-0.398-0.163-0.609-0.146-0.614
						c0.046-0.015,0.305,0.814,0.891,2.264c0.585,1.449,1.539,3.506,2.966,5.908c1.423,2.404,3.348,5.127,5.679,7.997
						c2.327,2.875,5.063,5.893,7.883,9.115c5.696,6.394,10.157,12.841,12.549,17.944c1.203,2.547,1.904,4.73,2.243,6.267
						c0.165,0.77,0.276,1.37,0.315,1.784C415.573,422.806,415.591,423.022,415.573,423.025z"/>
				</g>
			</g>
			<g>
				<g>
					<path style="fill:#E0E0E0;" d="M443.657,391.304c0.017,0.038-0.521,0.31-1.472,0.826c-0.944,0.53-2.283,1.347-3.818,2.524
						c-1.535,1.175-3.251,2.718-5.013,4.573c-1.76,1.859-3.572,4.018-5.423,6.331c-3.699,4.641-7.158,8.748-9.23,12.026
						c-1.052,1.626-1.816,2.997-2.317,3.959c-0.505,0.96-0.773,1.499-0.81,1.482c-0.016-0.007,0.031-0.151,0.136-0.418
						c0.11-0.265,0.258-0.662,0.495-1.153c0.448-0.993,1.169-2.401,2.19-4.064c2.012-3.357,5.444-7.52,9.137-12.154
						c1.854-2.318,3.689-4.481,5.482-6.337c1.796-1.853,3.558-3.386,5.138-4.536c1.58-1.152,2.963-1.93,3.943-2.41
						c0.488-0.245,0.886-0.395,1.149-0.509C443.507,391.337,443.65,391.288,443.657,391.304z"/>
				</g>
			</g>
			<g>
				<g>
					<path style="fill:#E0E0E0;" d="M444.206,401.595c0.006,0.075-1.188,0.219-3.111,0.452c-1.916,0.248-4.584,0.568-7.378,1.453
						c-2.784,0.907-5.098,2.288-6.606,3.467c-1.523,1.177-2.241,2.15-2.311,2.093c-0.025-0.018,0.124-0.283,0.461-0.716
						c0.333-0.436,0.878-1.018,1.621-1.659c1.484-1.279,3.82-2.743,6.678-3.674c2.863-0.906,5.566-1.169,7.5-1.326
						C442.999,401.544,444.201,401.528,444.206,401.595z"/>
				</g>
			</g>
			<g>
				<g>
					<path style="fill:#E0E0E0;" d="M425.708,407.93c-0.162-0.092,1.24-2.233,2.327-5.114c1.021-2.907,1.259-5.455,1.443-5.426
						c0.066,0.008,0.064,0.646-0.052,1.669c-0.122,1.02-0.367,2.439-0.908,3.932c-0.544,1.491-1.257,2.738-1.804,3.606
						C426.159,407.464,425.765,407.965,425.708,407.93z"/>
				</g>
			</g>
			<g>
				<g>
					<path style="fill:#E0E0E0;" d="M452.752,363.677c0.006,0.017-0.165,0.107-0.498,0.265c-0.386,0.175-0.87,0.395-1.462,0.664
						c-0.64,0.275-1.418,0.623-2.293,1.085c-0.879,0.453-1.905,0.92-2.973,1.562c-0.542,0.308-1.108,0.63-1.697,0.965
						c-0.588,0.339-1.171,0.74-1.79,1.128c-1.251,0.759-2.504,1.694-3.842,2.648c-2.618,1.987-5.37,4.338-8.02,7.054
						c-2.624,2.742-4.881,5.574-6.778,8.259c-0.908,1.37-1.799,2.655-2.515,3.931c-0.367,0.632-0.748,1.228-1.066,1.828
						c-0.314,0.6-0.617,1.177-0.906,1.729c-0.604,1.089-1.036,2.13-1.459,3.024c-0.432,0.891-0.753,1.68-1.005,2.329
						c-0.249,0.601-0.452,1.092-0.614,1.484c-0.146,0.338-0.231,0.512-0.247,0.507c-0.017-0.006,0.035-0.192,0.15-0.541
						c0.139-0.402,0.312-0.905,0.525-1.521c0.225-0.663,0.52-1.465,0.929-2.371c0.4-0.909,0.811-1.966,1.398-3.072
						c0.282-0.561,0.576-1.146,0.883-1.755c0.311-0.608,0.686-1.213,1.047-1.854c0.705-1.294,1.589-2.597,2.493-3.984
						c1.888-2.719,4.153-5.583,6.798-8.347c2.671-2.737,5.455-5.097,8.108-7.077c1.355-0.951,2.627-1.879,3.896-2.627
						c0.629-0.383,1.22-0.779,1.817-1.11c0.598-0.327,1.173-0.641,1.724-0.942c1.085-0.625,2.128-1.072,3.023-1.502
						c0.892-0.439,1.684-0.762,2.339-1.009c0.609-0.234,1.106-0.425,1.503-0.577C452.562,363.719,452.746,363.661,452.752,363.677z"
						/>
				</g>
			</g>
			<g>
				<g>
					<path style="fill:#E0E0E0;" d="M430.526,378.569c-0.045-0.008,0.202-0.871,1.222-1.82c0.995-0.948,2.81-1.826,4.924-1.889
						c2.107-0.056,3.934,0.534,5.182,1.012c1.255,0.493,1.984,0.892,1.959,0.952c-0.029,0.071-0.811-0.21-2.079-0.609
						c-1.263-0.387-3.049-0.896-5.046-0.842c-1.99,0.061-3.707,0.827-4.704,1.651C430.967,377.845,430.608,378.619,430.526,378.569z
						"/>
				</g>
			</g>
			<g>
				<g>
					<path style="fill:#E0E0E0;" d="M427.204,381.997c-0.141-0.078,1.113-1.916,1.398-4.549c0.328-2.629-0.469-4.705-0.313-4.749
						c0.056-0.023,0.336,0.46,0.578,1.325c0.243,0.861,0.404,2.115,0.246,3.484c-0.162,1.368-0.607,2.551-1.042,3.333
						C427.637,381.626,427.253,382.032,427.204,381.997z"/>
				</g>
			</g>
		</g>
		<g>
			<path style="fill:#E0E0E0;" d="M391.011,428.121c0.766,13.591,4.862,27.413,11.161,41.388h27.394
				c6.008-13.836,9.82-27.637,10.498-41.388H391.011z"/>
		</g>
		<g>
			<g>
				<path style="fill:#FAFAFA;" d="M435.624,450.113c0,0.142-9.02,0.257-20.143,0.257c-11.128,0-20.145-0.115-20.145-0.257
					c0-0.142,9.018-0.257,20.145-0.257C426.605,449.856,435.624,449.971,435.624,450.113z"/>
			</g>
		</g>
		<g>
			<g>
				<path style="fill:#FAFAFA;" d="M435.012,455.037c0,0.142-8.456,0.257-18.884,0.257c-10.432,0-18.885-0.115-18.885-0.257
					c0-0.142,8.454-0.257,18.885-0.257C426.557,454.78,435.012,454.895,435.012,455.037z"/>
			</g>
		</g>
		<g>
			<g>
				<path style="fill:#FAFAFA;" d="M402.614,437.044c0.142,0,0.257,2.825,0.257,6.31c0,3.485-0.115,6.31-0.257,6.31
					c-0.142,0-0.257-2.825-0.257-6.31C402.357,439.87,402.472,437.044,402.614,437.044z"/>
			</g>
		</g>
		<g>
			<g>
				<path style="fill:#FAFAFA;" d="M417.291,437.044c0.142,0,0.257,2.926,0.257,6.534c0,3.61-0.115,6.535-0.257,6.535
					c-0.142,0-0.257-2.925-0.257-6.535C417.034,439.97,417.15,437.044,417.291,437.044z"/>
			</g>
		</g>
		<g>
			<g>
				<path style="fill:#FAFAFA;" d="M431.07,436.934c0.142,0,0.257,2.984,0.257,6.664c0,3.682-0.115,6.665-0.257,6.665
					c-0.142,0-0.257-2.983-0.257-6.665C430.813,439.918,430.928,436.934,431.07,436.934z"/>
			</g>
		</g>
		<g>
			<g>
				<path style="fill:#FAFAFA;" d="M439.194,437.044c0,0.142-10.579,0.257-23.626,0.257c-13.051,0-23.628-0.115-23.628-0.257
					c0-0.142,10.577-0.257,23.628-0.257C428.616,436.787,439.194,436.902,439.194,437.044z"/>
			</g>
		</g>
	</g>
	<g>
		<g>
			<g>
				<g>
					<g>
						<g>
							<g>
								<g>
									<g>
										<g>
											<g>
												<rect x="386.448" y="38.709" style="fill:#E0E0E0;" width="67.654" height="70.523"/>
											</g>
										</g>
									</g>
								</g>
							</g>
						</g>
					</g>
				</g>
			</g>
		</g>
		<g>
			<g>
				<g>
					<g>
						<g>
							<g>
								<g>
									<g>
										<g>
											<g>
												<rect x="381.867" y="38.709" style="fill:#FAFAFA;" width="67.653" height="70.523"/>
											</g>
										</g>
									</g>
								</g>
							</g>
						</g>
					</g>
				</g>
			</g>
			<g>
				<g>
					<g>
						<g>
							<g>
								<g>
									<g>
										<g>
											<g>
												<path style="fill:#E0E0E0;" d="M449.541,109.253h-67.695V38.688h67.695V109.253z M381.887,109.211h67.612V38.73h-67.612
													V109.211z"/>
											</g>
										</g>
									</g>
								</g>
							</g>
						</g>
					</g>
				</g>
			</g>
		</g>
		<g>
			<g>
				<g>
					<g>
						<g>
							<g>
								<g>
									<g>
										<g>
											<g>
												<rect x="390.961" y="48.189" style="fill:#FFFFFF;" width="49.465" height="51.562"/>
											</g>
										</g>
									</g>
								</g>
							</g>
						</g>
					</g>
				</g>
			</g>
		</g>
		<g>
			<g>
				<g>
					<g>
						<g>
							<g>
								<g>
									<g>
										<g>
											<g>
												<g>
													<path style="fill:#E0E0E0;" d="M390.961,100.094c0.039,0.046-0.431,0.586-1.22,1.419
														c-0.79,0.834-1.9,1.962-3.144,3.188c-1.245,1.226-2.388,2.318-3.232,3.093c-0.844,0.775-1.387,1.234-1.43,1.191
														c-0.042-0.043,0.424-0.58,1.214-1.413c0.79-0.834,1.903-1.965,3.151-3.194c1.248-1.229,2.394-2.324,3.237-3.099
														C390.381,100.504,390.922,100.048,390.961,100.094z"/>
												</g>
											</g>
										</g>
									</g>
								</g>
							</g>
						</g>
					</g>
				</g>
			</g>
		</g>
		<g>
			<g>
				<g>
					<g>
						<g>
							<g>
								<g>
									<g>
										<g>
											<g>
												<g>
													<path style="fill:#E0E0E0;" d="M440.425,99.968c0.046-0.039,0.586,0.431,1.419,1.22c0.834,0.79,1.962,1.9,3.188,3.144
														c1.226,1.245,2.318,2.388,3.093,3.232c0.775,0.843,1.234,1.387,1.191,1.429c-0.043,0.043-0.58-0.424-1.413-1.214
														c-0.833-0.79-1.965-1.903-3.194-3.151c-1.229-1.248-2.323-2.394-3.099-3.238S440.379,100.007,440.425,99.968z"/>
												</g>
											</g>
										</g>
									</g>
								</g>
							</g>
						</g>
					</g>
				</g>
			</g>
		</g>
		<g>
			<g>
				<g>
					<g>
						<g>
							<g>
								<g>
									<g>
										<g>
											<g>
												<g>
													<path style="fill:#E0E0E0;" d="M440.29,48.327c-0.039-0.046,0.431-0.586,1.221-1.419c0.79-0.834,1.9-1.962,3.144-3.187
														c1.244-1.226,2.388-2.318,3.231-3.094c0.844-0.775,1.387-1.233,1.43-1.19c0.042,0.043-0.424,0.579-1.214,1.413
														c-0.79,0.834-1.903,1.965-3.151,3.194c-1.248,1.229-2.394,2.324-3.237,3.099
														C440.87,47.917,440.329,48.373,440.29,48.327z"/>
												</g>
											</g>
										</g>
									</g>
								</g>
							</g>
						</g>
					</g>
				</g>
			</g>
		</g>
		<g>
			<g>
				<g>
					<g>
						<g>
							<g>
								<g>
									<g>
										<g>
											<g>
												<g>
													<path style="fill:#E0E0E0;" d="M390.826,48.453c-0.046,0.039-0.585-0.431-1.419-1.221
														c-0.834-0.79-1.962-1.9-3.188-3.144c-1.226-1.245-2.318-2.388-3.093-3.231c-0.775-0.844-1.234-1.387-1.191-1.429
														c0.043-0.043,0.579,0.424,1.413,1.214c0.834,0.79,1.965,1.903,3.194,3.151c1.229,1.248,2.324,2.394,3.099,3.238
														C390.416,47.874,390.872,48.414,390.826,48.453z"/>
												</g>
											</g>
										</g>
									</g>
								</g>
							</g>
						</g>
					</g>
				</g>
			</g>
		</g>
		<g>
			<g>
				<g>
					<g>
						<g>
							<g>
								<g>
									<g>
										<g>
											<g>
												<g>
													<path style="fill:#E0E0E0;" d="M440.29,99.751c-0.004-0.004-0.007-0.088-0.011-0.251
														c-0.003-0.176-0.006-0.413-0.011-0.719c-0.005-0.647-0.012-1.576-0.022-2.784c-0.012-2.443-0.029-5.996-0.05-10.509
														c-0.024-9.031-0.057-21.896-0.097-37.3l0.191,0.191c-14.4,0.008-31.31,0.018-49.324,0.028h-0.005l0.219-0.219
														c-0.011,18.926-0.022,36.631-0.031,51.562l-0.188-0.188c14.781,0.04,27.089,0.073,35.717,0.096
														c4.311,0.021,7.702,0.038,10.033,0.049c1.151,0.01,2.037,0.017,2.654,0.022c0.292,0.005,0.518,0.008,0.686,0.011
														C440.206,99.745,440.287,99.748,440.29,99.751c0.004,0.004-0.07,0.007-0.218,0.011
														c-0.163,0.003-0.382,0.006-0.666,0.011c-0.609,0.005-1.483,0.012-2.618,0.022c-2.32,0.011-5.697,0.028-9.99,0.049
														c-8.658,0.023-21.006,0.056-35.837,0.096l-0.188,0.001l0-0.189c-0.009-14.932-0.02-32.637-0.031-51.562l0-0.219h0.219
														h0.005c18.014,0.01,34.924,0.02,49.324,0.028h0.191l0,0.191c-0.04,15.455-0.074,28.362-0.097,37.422
														c-0.022,4.494-0.039,8.033-0.05,10.466c-0.01,1.191-0.017,2.109-0.022,2.747c-0.004,0.298-0.008,0.528-0.011,0.699
														C440.297,99.678,440.294,99.755,440.29,99.751z"/>
												</g>
											</g>
										</g>
									</g>
								</g>
							</g>
						</g>
					</g>
				</g>
			</g>
		</g>
		<g>
			<g>
				<g>
					<g>
						<g>
							<g>
								<g>
									<g>
										<g>
											<g>
												<rect x="407.44" y="65.717" style="fill:#EBEBEB;" width="16.505" height="16.506"/>
											</g>
										</g>
									</g>
								</g>
							</g>
						</g>
					</g>
				</g>
			</g>
		</g>
	</g>
</g>
<g id="Background_Simple" style="display:none;">
	<path style="display:inline;fill:#F5F5F5;" d="M60.975,60.832l1.247-2.055c10.512-17.322,29.517-27.764,49.555-26.497
		c2.576,0.163,5.14,0.512,7.671,1.053c18.219,3.9,34.071,17.677,40.641,35.321c3.864,10.377,4.944,22.325,12.277,30.561
		c9.544,10.72,25.747,11.056,39.993,10.612c14.246-0.444,30.46-0.065,39.957,10.697c5.948,6.74,7.839,16.325,7.359,25.351
		c-1.27,23.898-17.922,45.265-39.099,55.886c-21.177,10.621-46.111,11.572-69.289,6.9c-32.469-6.545-63.346-24.519-81.906-52.281
		C50.822,128.618,46.125,90.796,60.975,60.832z"/>
</g>
<g id="Floor">
	<g>
		<path style="fill:#263238;" d="M473.172,470.471c0,0.144-100.821,0.26-225.162,0.26c-124.384,0-225.183-0.117-225.183-0.26
			c0-0.144,100.8-0.26,225.183-0.26C372.351,470.211,473.172,470.327,473.172,470.471z"/>
	</g>
</g>
<g id="Character">
	<g>
		<g>
			<g>
				<g>
					<g>
						<g>
							<g>
								<g>
									<g>
										<g>
											<g>
												<g>
													<g>
														<g>
															<g>
																<g>
																	<path style="fill:#455A64;" d="M367.136,432.937l0.788,37.604l-49.498,1.166
																		c0.172-4.475,25.543-14.05,25.543-14.05l-1.551-24.074L367.136,432.937z"/>
																</g>
															</g>
														</g>
													</g>
												</g>
											</g>
										</g>
									</g>
								</g>
							</g>
						</g>
						<g style="opacity:0.6;">
							<g>
								<g>
									<g>
										<g>
											<g>
												<g>
													<g>
														<g>
															<g>
																<g>
																	<g>
																		<path style="fill:#FFFFFF;" d="M359.221,455.268c0.964,0.225,1.653,1.228,1.455,2.147
																			c-0.198,0.92-1.271,1.591-2.239,1.382c-0.969-0.209-1.834-1.388-1.529-2.281c0.306-0.893,1.611-1.616,2.498-1.193
																			"/>
																	</g>
																</g>
															</g>
														</g>
													</g>
												</g>
											</g>
										</g>
									</g>
								</g>
							</g>
						</g>
						<g style="opacity:0.6;">
							<g>
								<g>
									<g>
										<g>
											<g>
												<g>
													<g>
														<g>
															<g>
																<g>
																	<path style="fill:#FFFFFF;" d="M367.924,470.541l-0.237-3.787l-47.37,2.533c0,0-2.18,0.958-1.892,2.419
																		L367.924,470.541z"/>
																</g>
															</g>
														</g>
													</g>
												</g>
											</g>
										</g>
									</g>
								</g>
							</g>
						</g>
						<g>
							<g>
								<g>
									<g>
										<g>
											<g>
												<g>
													<g>
														<g>
															<g>
																<g>
																	<g>
																		<path style="fill:#263238;" d="M343.16,457.437c0.014,0.228,1.225,0.303,2.434,1.01
																			c1.228,0.676,1.867,1.652,2.087,1.556c0.222-0.05-0.175-1.407-1.654-2.238
																			C344.556,456.922,343.102,457.228,343.16,457.437z"/>
																	</g>
																</g>
															</g>
														</g>
													</g>
												</g>
											</g>
										</g>
									</g>
								</g>
							</g>
						</g>
						<g>
							<g>
								<g>
									<g>
										<g>
											<g>
												<g>
													<g>
														<g>
															<g>
																<g>
																	<g>
																		<path style="fill:#263238;" d="M338.022,459.589c-0.049,0.223,1.008,0.586,1.854,1.533
																			c0.876,0.923,1.111,1.963,1.351,1.947c0.228,0.03,0.36-1.311-0.716-2.469
																			C339.446,459.433,338.021,459.37,338.022,459.589z"/>
																	</g>
																</g>
															</g>
														</g>
													</g>
												</g>
											</g>
										</g>
									</g>
								</g>
							</g>
						</g>
						<g>
							<g>
								<g>
									<g>
										<g>
											<g>
												<g>
													<g>
														<g>
															<g>
																<g>
																	<g>
																		<path style="fill:#263238;" d="M335.228,465.53c0.221,0.044,0.527-1.106-0.126-2.342
																			c-0.645-1.241-1.797-1.708-1.895-1.515c-0.132,0.191,0.62,0.845,1.14,1.868
																			C334.893,464.552,334.987,465.513,335.228,465.53z"/>
																	</g>
																</g>
															</g>
														</g>
													</g>
												</g>
											</g>
										</g>
									</g>
								</g>
							</g>
						</g>
						<g>
							<g>
								<g>
									<g>
										<g>
											<g>
												<g>
													<g>
														<g>
															<g>
																<g>
																	<g>
																		<path style="fill:#263238;" d="M343.451,451.913c0.107,0.206,1.207-0.135,2.576-0.08
																			c1.37,0.029,2.444,0.438,2.565,0.239c0.136-0.168-0.925-0.989-2.538-1.034
																			C344.442,450.983,343.327,451.737,343.451,451.913z"/>
																	</g>
																</g>
															</g>
														</g>
													</g>
												</g>
											</g>
										</g>
									</g>
								</g>
							</g>
						</g>
						<g>
							<g>
								<g>
									<g>
										<g>
											<g>
												<g>
													<g>
														<g>
															<g>
																<g>
																	<g>
																		<path style="fill:#263238;" d="M344.483,446.335c0,0.094,0.959,0.213,2.479-0.071
																			c0.756-0.142,1.645-0.398,2.573-0.814c0.464-0.208,0.937-0.456,1.405-0.747c0.224-0.144,0.491-0.29,0.734-0.569
																			c0.262-0.245,0.398-0.854,0.079-1.218c-0.263-0.354-0.715-0.498-1.073-0.497
																			c-0.365-0.003-0.659,0.074-0.927,0.143c-0.548,0.139-1.06,0.324-1.528,0.536c-0.935,0.429-1.69,0.961-2.248,1.472
																			c-1.122,1.032-1.491,1.895-1.408,1.937c0.112,0.073,0.652-0.655,1.798-1.513c0.572-0.427,1.305-0.871,2.18-1.229
																			c0.438-0.177,0.911-0.332,1.412-0.448c0.521-0.143,0.967-0.156,1.107,0.061c0.051,0.083,0.058,0.116-0.048,0.263
																			c-0.11,0.136-0.319,0.272-0.54,0.415c-0.431,0.28-0.865,0.525-1.291,0.738c-0.853,0.425-1.671,0.721-2.374,0.925
																			C345.407,446.127,344.476,446.212,344.483,446.335z"/>
																	</g>
																</g>
															</g>
														</g>
													</g>
												</g>
											</g>
										</g>
									</g>
								</g>
							</g>
						</g>
						<g>
							<g>
								<g>
									<g>
										<g>
											<g>
												<g>
													<g>
														<g>
															<g>
																<g>
																	<g>
																		<path style="fill:#263238;" d="M344.807,446.655c0.087,0.033,0.545-0.797,0.594-2.278
																			c0.022-0.735-0.082-1.622-0.406-2.557c-0.165-0.466-0.384-0.942-0.669-1.408
																			c-0.302-0.456-0.673-1.066-1.613-1.146c-0.49-0.006-0.887,0.365-1.018,0.677
																			c-0.155,0.321-0.181,0.593-0.232,0.865c-0.077,0.549-0.052,1.084,0.04,1.578c0.182,0.992,0.635,1.81,1.123,2.395
																			c0.999,1.189,2.015,1.439,2.033,1.361c0.078-0.117-0.777-0.538-1.547-1.685c-0.38-0.566-0.724-1.316-0.842-2.183
																			c-0.06-0.432-0.065-0.892,0.01-1.355c0.064-0.499,0.251-0.905,0.449-0.859c0.246-0.009,0.674,0.355,0.887,0.747
																			c0.265,0.413,0.479,0.838,0.648,1.255c0.332,0.838,0.489,1.644,0.542,2.327
																			C344.91,445.762,344.674,446.624,344.807,446.655z"/>
																	</g>
																</g>
															</g>
														</g>
													</g>
												</g>
											</g>
										</g>
									</g>
								</g>
							</g>
						</g>
					</g>
				</g>
				<g>
					<g>
						<g>
							<g>
								<g>
									<g>
										<g>
											<g>
												<g>
													<g>
														<g>
															<g>
																<g>
																	<path style="fill:#455A64;" d="M404.652,436.061l4.729,37.313l49.135-6.098
																		c-0.825-4.402-27.325-10.157-27.325-10.157l-1.993-24.041L404.652,436.061z"/>
																</g>
															</g>
														</g>
													</g>
												</g>
											</g>
										</g>
									</g>
								</g>
							</g>
						</g>
						<g style="opacity:0.6;">
							<g>
								<g>
									<g>
										<g>
											<g>
												<g>
													<g>
														<g>
															<g>
																<g>
																	<g>
																		<path style="fill:#FFFFFF;" d="M415.753,456.992c-0.921,0.364-1.456,1.456-1.125,2.337
																			c0.331,0.881,1.49,1.387,2.417,1.039c0.927-0.349,1.611-1.642,1.178-2.481c-0.434-0.839-1.83-1.362-2.646-0.815"
																			/>
																	</g>
																</g>
															</g>
														</g>
													</g>
												</g>
											</g>
										</g>
									</g>
								</g>
							</g>
						</g>
						<g style="opacity:0.6;">
							<g>
								<g>
									<g>
										<g>
											<g>
												<g>
													<g>
														<g>
															<g>
																<g>
																	<path style="fill:#FFFFFF;" d="M409.381,473.374l-0.321-3.781l47.23-4.434c0,0,2.297,0.629,2.226,2.116
																		L409.381,473.374z"/>
																</g>
															</g>
														</g>
													</g>
												</g>
											</g>
										</g>
									</g>
								</g>
							</g>
						</g>
						<g>
							<g>
								<g>
									<g>
										<g>
											<g>
												<g>
													<g>
														<g>
															<g>
																<g>
																	<g>
																		<path style="fill:#263238;" d="M431.958,456.784c0.02,0.228-1.167,0.48-2.259,1.356
																			c-1.116,0.849-1.605,1.907-1.837,1.845c-0.227-0.016-0.033-1.417,1.308-2.456
																			C430.502,456.479,431.985,456.569,431.958,456.784z"/>
																	</g>
																</g>
															</g>
														</g>
													</g>
												</g>
											</g>
										</g>
									</g>
								</g>
							</g>
						</g>
						<g>
							<g>
								<g>
									<g>
										<g>
											<g>
												<g>
													<g>
														<g>
															<g>
																<g>
																	<g>
																		<path style="fill:#263238;" d="M437.356,458.159c0.081,0.213-0.911,0.728-1.609,1.788
																			c-0.731,1.041-0.811,2.105-1.051,2.124c-0.221,0.063-0.548-1.245,0.346-2.548
																			C435.925,458.214,437.325,457.944,437.356,458.159z"/>
																	</g>
																</g>
															</g>
														</g>
													</g>
												</g>
											</g>
										</g>
									</g>
								</g>
							</g>
						</g>
						<g>
							<g>
								<g>
									<g>
										<g>
											<g>
												<g>
													<g>
														<g>
															<g>
																<g>
																	<g>
																		<path style="fill:#263238;" d="M440.991,463.628c-0.212,0.076-0.684-1.017-0.218-2.335
																			c0.456-1.322,1.527-1.952,1.652-1.776c0.158,0.17-0.49,0.927-0.854,2.015
																			C441.179,462.611,441.226,463.576,440.991,463.628z"/>
																	</g>
																</g>
															</g>
														</g>
													</g>
												</g>
											</g>
										</g>
									</g>
								</g>
							</g>
						</g>
						<g>
							<g>
								<g>
									<g>
										<g>
											<g>
												<g>
													<g>
														<g>
															<g>
																<g>
																	<g>
																		<path style="fill:#263238;" d="M430.862,451.362c-0.076,0.219-1.215,0.043-2.56,0.298
																			c-1.351,0.23-2.354,0.791-2.502,0.612c-0.159-0.147,0.77-1.114,2.359-1.394
																			C429.745,450.587,430.958,451.17,430.862,451.362z"/>
																	</g>
																</g>
															</g>
														</g>
													</g>
												</g>
											</g>
										</g>
									</g>
								</g>
							</g>
						</g>
						<g>
							<g>
								<g>
									<g>
										<g>
											<g>
												<g>
													<g>
														<g>
															<g>
																<g>
																	<g>
																		<path style="fill:#263238;" d="M429.024,445.996c0.014,0.093-0.917,0.351-2.463,0.293
																			c-0.769-0.03-1.686-0.153-2.665-0.428c-0.49-0.138-0.994-0.314-1.499-0.533c-0.243-0.11-0.528-0.215-0.809-0.455
																			c-0.295-0.203-0.519-0.786-0.256-1.193c0.208-0.388,0.635-0.598,0.988-0.649c0.361-0.056,0.663-0.024,0.937,0.006
																			c0.563,0.057,1.096,0.165,1.59,0.306c0.988,0.287,1.812,0.703,2.44,1.127c1.261,0.856,1.753,1.656,1.676,1.71
																			c-0.1,0.088-0.741-0.553-2.001-1.233c-0.628-0.338-1.419-0.67-2.336-0.897c-0.46-0.11-0.95-0.194-1.463-0.236
																			c-0.536-0.065-0.979-0.013-1.086,0.222c-0.038,0.089-0.041,0.123,0.086,0.254
																			c0.129,0.119,0.355,0.223,0.595,0.332c0.467,0.214,0.932,0.393,1.385,0.541c0.906,0.296,1.759,0.469,2.483,0.567
																			C428.078,445.925,429.013,445.873,429.024,445.996z"/>
																	</g>
																</g>
															</g>
														</g>
													</g>
												</g>
											</g>
										</g>
									</g>
								</g>
							</g>
						</g>
						<g>
							<g>
								<g>
									<g>
										<g>
											<g>
												<g>
													<g>
														<g>
															<g>
																<g>
																	<g>
																		<path style="fill:#263238;" d="M428.75,446.36c-0.081,0.046-0.656-0.708-0.922-2.167
																			c-0.129-0.724-0.157-1.617,0.027-2.589c0.095-0.485,0.242-0.988,0.456-1.49c0.232-0.495,0.509-1.153,1.427-1.37
																			c0.484-0.078,0.931,0.231,1.106,0.521c0.201,0.294,0.266,0.56,0.356,0.821c0.156,0.532,0.21,1.065,0.191,1.567
																			c-0.035,1.008-0.363,1.884-0.759,2.534c-0.814,1.323-1.783,1.718-1.812,1.644
																			c-0.094-0.104,0.689-0.646,1.284-1.894c0.293-0.615,0.524-1.407,0.513-2.283
																			c-0.004-0.437-0.066-0.892-0.208-1.339c-0.137-0.484-0.381-0.858-0.571-0.784
																			c-0.245,0.026-0.615,0.45-0.768,0.869c-0.202,0.448-0.351,0.899-0.457,1.337
																			c-0.206,0.878-0.243,1.698-0.195,2.381C428.517,445.492,428.877,446.309,428.75,446.36z"/>
																	</g>
																</g>
															</g>
														</g>
													</g>
												</g>
											</g>
										</g>
									</g>
								</g>
							</g>
						</g>
					</g>
				</g>
				<g>
					<g>
						<g>
							<g>
								<path style="fill:#263238;" d="M340.789,454.602"/>
							</g>
						</g>
					</g>
					<g>
						<g>
							<g>
								<path style="fill:#263238;" d="M324.201,233.211l81.61,2.609c0,0,18.162,121.297,17.662,129.724l11.201,87.984
									l-32.594,1.143c0,0-5.127-28.531-8.703-48.059c-2.379-12.993-6.72-32.056-7.897-42.905
									c-1.177-10.849-17.418-85.523-17.418-85.523s-1.412,86.858-1.444,90.471c-0.033,3.613,3.768,85.946,3.768,85.946H338.02
									c-1.672-14.86-5.644-74.325-6.499-86.343c-1.544-21.694-9.132-84.114-9.842-99.777
									C320.97,252.818,324.201,233.211,324.201,233.211z"/>
							</g>
						</g>
					</g>
				</g>
			</g>
			<g>
				<g>
					<g>
						<g>
							<path style="fill:#455A64;" d="M393.425,246.232c0.156,0.005,0.333-1.685,0.397-3.775c0.063-2.09-0.011-3.788-0.167-3.792
								c-0.155-0.005-0.333,1.685-0.396,3.775C393.195,244.53,393.269,246.227,393.425,246.232z"/>
						</g>
					</g>
				</g>
			</g>
			<g>
				<g>
					<g>
						<g>
							<path style="fill:#455A64;" d="M390.449,245.351c0.155-0.015,0.146-1.459-0.019-3.226c-0.165-1.768-0.425-3.188-0.58-3.174
								c-0.155,0.014-0.146,1.459,0.019,3.226C390.034,243.945,390.294,245.365,390.449,245.351z"/>
						</g>
					</g>
				</g>
			</g>
			<g>
				<g>
					<g>
						<g>
							<path style="fill:#455A64;" d="M340.644,245.356c0.155,0,0.282-1.238,0.282-2.764c0-1.527-0.126-2.764-0.282-2.764
								c-0.156,0-0.282,1.237-0.282,2.764C340.362,244.118,340.488,245.356,340.644,245.356z"/>
						</g>
					</g>
				</g>
			</g>
			<g>
				<g>
					<g>
						<g>
							<path style="fill:#455A64;" d="M337.443,246.811c0.146,0.024,0.485-1.564,0.315-3.542c-0.16-1.979-0.758-3.489-0.897-3.441
								c-0.157,0.046,0.183,1.577,0.336,3.488C337.363,245.225,337.281,246.792,337.443,246.811z"/>
						</g>
					</g>
				</g>
			</g>
			<g>
				<g>
					<g>
						<g>
							<path style="fill:#455A64;" d="M363.441,276.24c0.038-0.009-0.031-0.514-0.189-1.42c-0.173-1.016-0.393-2.301-0.655-3.836
								c-0.535-3.24-1.165-7.734-1.572-12.725c-0.402-4.994-0.502-9.53-0.496-12.815c0.012-1.556,0.022-2.86,0.029-3.891
								c0.01-0.919-0.003-1.429-0.042-1.431c-0.039-0.002-0.1,0.504-0.177,1.421c-0.081,0.917-0.155,2.248-0.208,3.895
								c-0.109,3.292-0.071,7.851,0.333,12.866c0.409,5.013,1.105,9.519,1.742,12.75c0.317,1.616,0.604,2.918,0.832,3.81
								C363.261,275.759,363.403,276.249,363.441,276.24z"/>
						</g>
					</g>
				</g>
			</g>
			<g>
				<g>
					<g>
						<g>
							<path style="fill:#455A64;" d="M366.231,241.036c-0.023,0.1,0.859-0.008,1.632,0.909c0.359,0.435,0.668,1.116,0.533,1.826
								c-0.112,0.711-0.794,1.315-1.633,1.472c-0.839,0.162-1.694-0.15-2.06-0.77c-0.386-0.61-0.349-1.357-0.174-1.894
								c0.383-1.136,1.242-1.36,1.184-1.444c-0.005-0.026-0.216-0.03-0.544,0.141c-0.327,0.165-0.745,0.547-1.012,1.163
								c-0.249,0.602-0.367,1.484,0.105,2.306c0.461,0.843,1.591,1.26,2.608,1.052c1.021-0.18,1.919-0.983,2.039-1.936
								c0.137-0.937-0.296-1.715-0.749-2.183c-0.474-0.474-1.004-0.676-1.368-0.71C366.421,240.928,366.227,241.01,366.231,241.036z
								"/>
						</g>
					</g>
				</g>
			</g>
			<g>
				<g>
					<g>
						<g>
							<path style="fill:#455A64;" d="M401.76,374.867c0.059,0.144,3.755-1.238,8.254-3.086c4.501-1.849,8.1-3.463,8.04-3.607
								c-0.059-0.144-3.754,1.238-8.254,3.086C405.301,373.108,401.701,374.723,401.76,374.867z"/>
						</g>
					</g>
				</g>
			</g>
		</g>
		<g>
			<g>
				<g>
					<g>
						<path style="fill:#FF725E;" d="M344.011,132.943c0,0-10.47,3.786-13.327,13.639c-2.214,7.637-13.626,48.61-13.626,48.61
							l-23.606-16.468l-8.98,10.018c0,0,21.551,41.163,33.528,41.152c10.01-0.009,18.802-7.663,18.802-7.663l12.843-37.121
							L344.011,132.943z"/>
					</g>
					<g>
						<g>
							<g>
								<g>
									<path style="fill:#FF725E;" d="M418.994,140.778l7.13,4.791l-19.54,77.839l2.725,30.206
										c-5.134,4.475-19.54,8.345-44.149,6.95c-24.61-1.396-42.882-11.449-42.882-11.449l4.926-41.345l15.656-50.399l1.152-24.429
										l25.01-5.072l28.512,2.429L418.994,140.778z"/>
								</g>
							</g>
							<g>
								<g>
									<g>
										<path style="fill:#263238;" d="M343.02,195.191c0.168,0,0.315-9.704,0.329-21.673c0.013-11.973-0.112-21.676-0.28-21.676
											c-0.168,0-0.315,9.702-0.329,21.675C342.726,185.486,342.852,195.191,343.02,195.191z"/>
									</g>
								</g>
							</g>
						</g>
					</g>
				</g>
			</g>
			<g>
				<polygon style="fill:#455A64;" points="444.75,208.142 363.605,186.682 363.436,186.637 325.764,176.674 305.215,254.378 
					343.055,264.385 353.597,224.522 434.743,245.982 				"/>
				<polygon style="opacity:0.3;" points="444.75,208.142 363.605,186.682 363.436,186.637 325.764,176.674 305.215,254.378 
					343.055,264.385 353.597,224.522 434.743,245.982 				"/>
				<polygon style="fill:#455A64;" points="409.976,198.945 328.83,177.485 328.661,177.441 290.99,167.478 270.44,245.181 
					308.28,255.189 318.823,215.325 399.968,236.786 				"/>
			</g>
			<g>
				<g>
					<g>
						<path style="fill:#FF725E;" d="M418.786,140.771l6.228,4.205c5.776,3.9,9.533,9.998,10.308,16.744
							c2.117,18.42,3.796,51.649-0.378,58.551c-5.632,9.312-65.745,12.345-65.745,12.345l-4.039-18.63l49.044-11.276l-0.613-15.485
							L418.786,140.771z"/>
					</g>
				</g>
				<g>
					<g>
						<g>
							<path style="fill:#263238;" d="M413.555,167.478c-0.013,0.001-0.018,0.222-0.014,0.652c0.008,0.463,0.02,1.093,0.035,1.898
								c0.024,1.663,0.076,4.105,0.068,7.219c0.032,6.225-0.408,15.153,0.041,25.926l0.198-0.257
								c-12.558,2.772-27.672,6.107-43.935,9.697c-1.632,0.362-3.252,0.722-4.854,1.078l-0.295,0.066l0.064,0.295
								c1.415,6.502,2.777,12.768,4.052,18.627l0.052,0.238l0.243-0.01c16.465-0.637,30.541-2.582,40.445-4.293
								c4.955-0.86,8.872-1.67,11.548-2.27c1.337-0.302,2.365-0.549,3.057-0.725c0.322-0.086,0.58-0.155,0.783-0.21
								c0.175-0.051,0.263-0.081,0.261-0.09c-0.002-0.008-0.094,0.006-0.273,0.04c-0.206,0.042-0.467,0.095-0.794,0.162
								c-0.734,0.151-1.761,0.362-3.075,0.632c-2.686,0.54-6.61,1.294-11.567,2.102c-9.909,1.609-23.973,3.474-40.406,4.071
								l0.294,0.229c-1.267-5.861-2.621-12.128-4.026-18.632l-0.231,0.361c1.602-0.355,3.222-0.715,4.854-1.077
								c16.255-3.627,31.36-6.997,43.913-9.798l0.208-0.046l-0.01-0.211c-0.503-10.745-0.138-19.671-0.255-25.906
								c-0.036-3.117-0.134-5.56-0.207-7.223c-0.046-0.804-0.083-1.433-0.109-1.896
								C413.589,167.698,413.568,167.477,413.555,167.478z"/>
						</g>
					</g>
				</g>
			</g>
			<g>
				<g>
					<path style="fill:#9F7362;" d="M358.826,217.559c0,0-1.49-2.288-4.58-4.037c-3.09-1.749-9.215-2.347-10.405-4.381
						c-1.191-2.034-3.033,0.105-1.969,2.725c0.677,1.669,5.17,5.49,5.17,5.49s-3.979,1.902-7.096,0.859
						c-3.117-1.042-13.476-1.951-14.243-0.374c-0.868,1.785,1.795,1.781,3.02,2.182c0.932,0.305,8.08,2.209,8.08,2.209
						s-13.016,2.18-14.519,3.125c-1.635,1.028,0.495,2.224,1.316,2.091c0.517-0.083-0.893,1.634,0.973,2.777
						c1.267,0.776,6.8,0.863,8.261,0.59l3.014-0.565l-8.931,2.808c0,0-1.285,1.763,1.062,2.07
						c1.047,0.137,29.518-1.487,31.688-1.797c3.753-0.536,9.068-1.489,9.068-1.489l-3.043-15.407L358.826,217.559z"/>
				</g>
			</g>
			<g>
				<g>
					<g>
						<g>
							<path style="fill:#9F7362;" d="M281.53,204.469l1.702-5.768c0,0,8.852-4.589,10.097-7.28l0.823-1.505
								c0,0,4.63-1.672,4.288-4.487c1.212-1.557,1.378-2.752-0.153-3.358c0,0,3.516-1.203,2.225-4.386
								c-1.29-3.184-15.111,3.734-15.111,3.734s-6.839,2.012-4.884,5.372c0,0-1,3.111,0.012,5.333c0,0-3.203,2.707-1.282,5.524
								L281.53,204.469z"/>
						</g>
					</g>
					<g>
						<g>
							<g>
								<path style="fill:#65463C;" d="M282.339,191.665c0.005-0.028-0.211-0.113-0.622-0.088c-0.407,0.023-1.008,0.21-1.575,0.69
									c-0.568,0.465-1.086,1.257-1.27,2.216c-0.204,0.956-0.123,2.027,0.081,3.09c0.404,2.132,1.142,3.966,1.795,5.218
									c0.655,1.255,1.195,1.946,1.251,1.91c0.156-0.076-1.735-3.052-2.515-7.229c-0.199-1.03-0.282-2.026-0.124-2.894
									c0.144-0.874,0.557-1.567,1.038-2.027C281.382,191.598,282.36,191.759,282.339,191.665z"/>
							</g>
						</g>
					</g>
					<g>
						<g>
							<g>
								<path style="fill:#65463C;" d="M285.557,186.297c0.083,0.144,2.766-1.409,6.357-2.636c3.584-1.25,6.654-1.684,6.63-1.848
									c-0.008-0.068-0.789-0.048-2.034,0.142c-1.244,0.188-2.951,0.569-4.772,1.196c-1.819,0.63-3.397,1.383-4.492,2.003
									C286.148,185.773,285.521,186.238,285.557,186.297z"/>
							</g>
						</g>
					</g>
					<g>
						<g>
							<g>
								<path style="fill:#65463C;" d="M285.565,189.684c0.07,0.144,2.834-1.125,6.383-2.291c3.546-1.18,6.521-1.808,6.492-1.966
									c-0.019-0.136-3.071,0.259-6.661,1.453C288.186,188.062,285.499,189.563,285.565,189.684z"/>
							</g>
						</g>
					</g>
					<g>
						<g>
							<g>
								<path style="fill:#65463C;" d="M282.937,184.931c0.005-0.146-1.075-0.106-1.949,0.787c-0.883,0.885-0.91,1.965-0.763,1.958
									c0.153,0.029,0.396-0.838,1.147-1.579C282.104,185.337,282.967,185.084,282.937,184.931z"/>
							</g>
						</g>
					</g>
					<g>
						<g>
							<g>
								<path style="fill:#65463C;" d="M287.118,193.49c0.084,0.129,1.564-0.701,3.427-1.633c1.861-0.938,3.41-1.629,3.357-1.774
									c-0.048-0.136-1.707,0.337-3.599,1.291C288.408,192.322,287.037,193.37,287.118,193.49z"/>
							</g>
						</g>
					</g>
				</g>
			</g>
		</g>
		<g>
			<g>
				<g>
					<path style="fill:#263238;" d="M364.303,80.855c-2.492,0.046-4.848-2.006-5.144-4.481c-0.296-2.475,1.509-5.025,3.941-5.568
						c-1.383-1.718-1.521-4.331-0.327-6.185c1.194-1.854,3.631-2.808,5.767-2.258c0.297-2.157,1.789-4.11,3.793-4.963
						c2.003-0.853,4.445-0.575,6.206,0.706c2.59-1.824,6.457-1.533,8.744,0.659c2.142-0.188,4.33,1.152,5.137,3.145
						c0.807,1.993,0.166,4.478-1.504,5.833"/>
				</g>
			</g>
			<g>
				<g>
					<g>
						<g>
							<g>
								<path style="fill:#9F7362;" d="M363.5,81.498c1.954-11.076,12.086-18.793,23.283-17.737l1.113,0.105
									c11.93,1.834,17.038,12.99,14.875,24.866l-5.51,39.785l-0.524,5.688c-0.712,7.725-7.586,13.387-15.304,12.607l0,0
									c-7.655-0.774-13.24-7.596-12.487-15.253l0.821-8.355c0,0-11.364-2.882-10.417-14.426
									C359.808,103.202,361.683,91.799,363.5,81.498z"/>
							</g>
						</g>
					</g>
					<g>
						<g>
							<g>
								<g>
									<g>
										<path style="fill:#65463C;" d="M369.674,123.178c0,0,7.322,1.138,15.526-2.995c0,0-4.337,7.963-15.745,5.838
											L369.674,123.178z"/>
									</g>
								</g>
							</g>
						</g>
					</g>
					<g>
						<g>
							<g>
								<g>
									<g>
										<g>
											<g>
												<g>
													<path style="fill:#263238;" d="M366.034,92.246c-0.113,0.867,0.528,1.677,1.431,1.811
														c0.901,0.134,1.725-0.458,1.837-1.324c0.113-0.867-0.528-1.678-1.429-1.812
														C366.97,90.787,366.147,91.38,366.034,92.246z"/>
												</g>
											</g>
										</g>
									</g>
								</g>
							</g>
						</g>
					</g>
					<g>
						<g>
							<g>
								<g>
									<g>
										<g>
											<g>
												<g>
													<g>
														<path style="fill:#263238;" d="M365.447,87.371c0.184,0.234,1.518-0.572,3.29-0.399
															c1.772,0.146,2.986,1.181,3.199,0.982c0.104-0.087-0.068-0.495-0.595-0.96c-0.519-0.463-1.432-0.952-2.536-1.052
															c-1.104-0.098-2.071,0.221-2.644,0.586C365.576,86.895,365.355,87.266,365.447,87.371z"/>
													</g>
												</g>
											</g>
										</g>
									</g>
								</g>
							</g>
						</g>
					</g>
					<g>
						<g>
							<g>
								<g>
									<g>
										<g>
											<g>
												<g>
													<path style="fill:#263238;" d="M381.711,93.834c-0.113,0.867,0.528,1.676,1.431,1.811
														c0.901,0.134,1.725-0.457,1.838-1.324c0.113-0.866-0.528-1.677-1.429-1.812
														C382.647,92.373,381.824,92.967,381.711,93.834z"/>
												</g>
											</g>
										</g>
									</g>
								</g>
							</g>
						</g>
					</g>
					<g>
						<g>
							<g>
								<g>
									<g>
										<g>
											<g>
												<g>
													<g>
														<path style="fill:#263238;" d="M382.833,89.346c0.184,0.234,1.52-0.571,3.291-0.399
															c1.772,0.146,2.986,1.181,3.199,0.982c0.103-0.087-0.066-0.494-0.596-0.96c-0.518-0.463-1.431-0.952-2.535-1.052
															c-1.104-0.098-2.071,0.221-2.644,0.586C382.964,88.87,382.742,89.241,382.833,89.346z"/>
													</g>
												</g>
											</g>
										</g>
									</g>
								</g>
							</g>
						</g>
					</g>
					<g>
						<g>
							<g>
								<g>
									<g>
										<g>
											<g>
												<g>
													<path style="fill:#263238;" d="M375.161,101.881c0.018-0.1-1.066-0.395-2.829-0.791
														c-0.448-0.089-0.868-0.22-0.915-0.536c-0.076-0.337,0.16-0.807,0.429-1.313c0.529-1.054,1.082-2.16,1.663-3.319
														c2.322-4.73,4.047-8.636,3.856-8.728c-0.191-0.092-2.228,3.668-4.549,8.398c-0.562,1.167-1.099,2.28-1.609,3.345
														c-0.22,0.498-0.569,1.054-0.402,1.754c0.09,0.35,0.399,0.627,0.681,0.732c0.282,0.116,0.536,0.145,0.758,0.179
														C374.031,101.867,375.145,101.98,375.161,101.881z"/>
												</g>
											</g>
										</g>
									</g>
								</g>
							</g>
						</g>
					</g>
					<g>
						<g>
							<g>
								<g>
									<g>
										<g>
											<g>
												<g>
													<path style="fill:#263238;" d="M380.26,103.599c-0.286-0.044-0.472,1.879-2.247,3.089
														c-1.773,1.214-3.803,0.805-3.843,1.072c-0.038,0.118,0.421,0.417,1.285,0.522c0.846,0.109,2.111-0.046,3.198-0.786
														c1.083-0.743,1.621-1.819,1.761-2.602C380.562,104.096,380.393,103.6,380.26,103.599z"/>
												</g>
											</g>
										</g>
									</g>
								</g>
							</g>
						</g>
					</g>
					<g>
						<g>
							<g>
								<g>
									<path style="fill:#263238;" d="M383.031,82.359c0.129,0.498,1.92,0.437,3.975,0.884c2.065,0.406,3.683,1.173,4,0.767
										c0.142-0.195-0.107-0.676-0.741-1.207c-0.628-0.529-1.658-1.073-2.893-1.329c-1.235-0.254-2.396-0.164-3.183,0.072
										C383.397,81.781,382.977,82.123,383.031,82.359z"/>
								</g>
							</g>
						</g>
					</g>
					<g>
						<g>
							<g>
								<g>
									<path style="fill:#263238;" d="M366.582,82.305c0.274,0.432,1.534,0.129,3.004,0.248c1.474,0.067,2.685,0.526,3.011,0.133
										c0.145-0.193-0.013-0.614-0.52-1.047c-0.499-0.43-1.365-0.825-2.377-0.89c-1.011-0.063-1.92,0.219-2.47,0.583
										C366.673,81.697,366.463,82.095,366.582,82.305z"/>
								</g>
							</g>
						</g>
					</g>
					<g>
						<g>
							<g>
								<path style="fill:#263238;" d="M365.109,76.312c0,0,3.723-6.934,7.364-8.29c4.408-1.642,5.786,3.156,9.909,2.413
									c4.123-0.743,8.332-2.321,12.144,1.172c4.173,3.823,1.842,6.009,1.637,11.151c-0.833,20.849,2.401,27.073,4.401,17.404
									c0.219-1.059,3.27-1.63,4.137-6.111c1.125-5.81,2.023-12.91,1.107-17.195c-0.772-3.612-2.543-6.224-5.877-9.235
									c-5.263-4.752-13.031-5.577-18.362-5.545C376.237,62.11,365.481,67.225,365.109,76.312z"/>
							</g>
						</g>
					</g>
					<g>
						<g>
							<g>
								<path style="fill:#9F7362;" d="M399.858,99.779c0.241-1.773,1.907-3.033,3.664-2.697c2.131,0.408,4.409,1.855,3.847,6.285
									c-0.996,7.859-8.681,5.238-8.666,5.011C398.714,108.224,399.412,103.064,399.858,99.779z"/>
							</g>
						</g>
					</g>
					<g>
						<g>
							<g>
								<path style="fill:#65463C;" d="M400.788,105.638c0.038-0.021,0.125,0.113,0.343,0.249c0.212,0.132,0.591,0.252,1.021,0.151
									c0.869-0.199,1.735-1.429,1.953-2.841c0.111-0.712,0.047-1.413-0.135-2.009c-0.167-0.605-0.488-1.054-0.896-1.181
									c-0.404-0.149-0.731,0.064-0.856,0.273c-0.133,0.206-0.103,0.37-0.147,0.378c-0.025,0.017-0.152-0.153-0.048-0.47
									c0.052-0.152,0.168-0.326,0.372-0.453c0.208-0.13,0.495-0.173,0.783-0.104c0.601,0.119,1.075,0.745,1.276,1.4
									c0.233,0.661,0.321,1.45,0.197,2.251c-0.251,1.577-1.25,2.957-2.427,3.141c-0.571,0.074-1.011-0.151-1.226-0.367
									C400.779,105.83,400.759,105.649,400.788,105.638z"/>
							</g>
						</g>
					</g>
				</g>
				<g>
					<g>
						<path style="fill:#263238;" d="M401.147,84.491c-1.09,0.602-2.24,1.221-3.485,1.226c-1.245,0.006-2.589-0.836-2.682-2.078
							c-0.042-0.558,0.153-1.182-0.168-1.64c-0.383-0.547-1.192-0.463-1.859-0.455c-2.315,0.027-4.509-1.816-4.882-4.101
							c-0.667,0.82-2.028,0.653-2.859-0.001c-0.831-0.654-1.312-1.641-1.93-2.499c-0.617-0.858-1.522-1.659-2.578-1.609
							c-0.591,0.028-1.169,0.323-1.75,0.216c-1.027-0.19-1.417-1.45-1.477-2.492c-0.06-1.042-0.068-2.253-0.892-2.894
							c-0.764-0.594-1.845-0.395-2.811-0.344c-0.966,0.051-2.176-0.289-2.332-1.244c-0.082-0.501,0.177-0.995,0.488-1.397
							c1.41-1.817,4.168-2.422,6.209-1.364c1.017-2.532,3.645-4.329,6.373-4.359c2.729-0.03,5.395,1.709,6.468,4.219
							c1.809-1.354,4.29-1.76,6.436-1.053c2.146,0.707,3.899,2.509,4.548,4.673c1.965-0.323,4.081,0.625,5.148,2.307
							c1.067,1.682,1.022,4-0.108,5.64c1.341,0.943,2.421,2.466,2.296,4.101c-0.125,1.635-1.868,3.11-3.402,2.532
							c0.516,1.331-0.164,3.006-1.462,3.599c-1.298,0.593-3.01,0.013-3.679-1.248"/>
					</g>
				</g>
				<g>
					<g>
						<g>
							<path style="fill:#455A64;" d="M377.335,66.08c-0.007,0-0.01,0.049-0.012,0.145c0.002,0.096-0.006,0.24,0.01,0.426
								c0.038,0.371,0.134,0.924,0.429,1.573c0.298,0.64,0.784,1.393,1.572,2.029c0.77,0.641,1.859,1.175,3.142,1.226l-0.117-0.187
								c-0.308,0.651-0.318,1.466-0.047,2.192c0.251,0.735,0.693,1.407,1.166,2.066c0.244,0.318,0.447,0.684,0.797,0.988
								c0.34,0.292,0.763,0.483,1.206,0.582c0.878,0.197,1.908,0.017,2.623-0.67l-0.287-0.112c0.052,1.586,0.796,3.238,2.121,4.328
								c0.698,0.612,1.594,1.031,2.509,1.093c0.914,0.077,1.787-0.11,2.604-0.319l-0.202-0.113c0.331,1.02,0.903,1.917,1.636,2.609
								c0.718,0.689,1.718,1.149,2.676,1.007c1.898-0.218,3.278-1.649,3.664-3.083l-0.186,0.066c0.876,0.59,1.862,0.732,2.671,0.654
								c0.82-0.071,1.485-0.362,1.969-0.664c0.486-0.309,0.787-0.645,0.972-0.88c0.172-0.246,0.247-0.384,0.238-0.389
								c-0.037-0.036-0.318,0.575-1.28,1.155c-0.479,0.275-1.128,0.537-1.915,0.587c-0.777,0.058-1.71-0.098-2.517-0.661
								l-0.14-0.098l-0.047,0.164c-0.378,1.336-1.703,2.667-3.461,2.85c-0.867,0.119-1.746-0.29-2.426-0.943
								c-0.684-0.652-1.229-1.516-1.535-2.474l-0.049-0.152l-0.154,0.039c-0.805,0.203-1.647,0.377-2.491,0.303
								c-0.846-0.062-1.65-0.435-2.316-1.015c-1.252-1.031-1.951-2.577-2.008-4.079l-0.014-0.378l-0.273,0.266
								c-0.605,0.589-1.527,0.767-2.317,0.591c-0.397-0.086-0.772-0.254-1.069-0.506c-0.29-0.243-0.504-0.605-0.752-0.926
								c-0.473-0.648-0.903-1.296-1.144-1.98c-0.258-0.678-0.252-1.395,0.015-1.986l0.082-0.182l-0.199-0.006
								c-1.21-0.032-2.261-0.523-3.016-1.126c-0.772-0.598-1.26-1.315-1.571-1.928C377.291,66.9,377.393,66.067,377.335,66.08z"/>
						</g>
					</g>
				</g>
			</g>
		</g>
	</g>
</g>
<g id="Speech_Bubble">
	<g>
		<g>
			<g>
				<g>
					<g>
						<path style="fill:#FFFFFF;" d="M342.147,100.015l-2.349-8.483c2.989-4.852,4.717-10.564,4.717-16.68
							c0-17.591-14.26-31.851-31.851-31.851c-17.591,0-31.851,14.26-31.851,31.851c0,17.591,14.26,31.851,31.851,31.851
							c7.345,0,14.104-2.493,19.492-6.67l-0.011,0.014L342.147,100.015z"/>
						<g>
							<path style="fill:#263238;" d="M342.147,100.015c0,0-0.203,0.012-0.625,0.021c-0.446,0.007-1.077,0.018-1.897,0.031
								c-1.717,0.021-4.225,0.051-7.479,0.09c-0.061,0.001-0.111-0.048-0.111-0.109c0-0.025,0.009-0.05,0.024-0.069l0.011-0.014
								l0.155,0.155c-3.197,2.497-7.965,5.23-14.24,6.311c-1.56,0.27-3.206,0.422-4.912,0.448c-0.853,0.018-1.72-0.066-2.603-0.096
								c-0.886-0.007-1.773-0.148-2.674-0.291c-3.602-0.536-7.355-1.731-10.906-3.737c-3.549-1.997-6.888-4.799-9.606-8.321
								c-2.719-3.513-4.807-7.75-5.884-12.396c-2.277-9.252,0.068-20.226,6.981-28.157c3.522-4.021,7.921-7.181,12.744-8.965
								c4.797-1.838,9.898-2.465,14.734-2.002c4.841,0.488,9.384,2.097,13.256,4.427c3.88,2.331,7.091,5.384,9.506,8.733
								c2.424,3.351,4.049,6.994,4.983,10.552c0.52,1.771,0.729,3.551,0.943,5.254c0.081,1.717,0.207,3.373,0.071,4.961
								c-0.414,6.378-2.628,11.383-4.73,14.746l0.012-0.083c0.734,2.752,1.303,4.884,1.694,6.351
								c0.183,0.698,0.324,1.237,0.424,1.622C342.11,99.84,342.147,100.015,342.147,100.015s-0.066-0.198-0.176-0.569
								c-0.113-0.388-0.272-0.931-0.478-1.636c-0.415-1.444-1.018-3.543-1.796-6.251c-0.008-0.029-0.003-0.059,0.012-0.083
								c2.051-3.366,4.202-8.344,4.574-14.657c0.125-1.572-0.01-3.21-0.098-4.907c-0.221-1.683-0.435-3.44-0.957-5.187
								c-0.938-3.511-2.557-7.099-4.959-10.398c-2.393-3.296-5.568-6.296-9.397-8.584c-3.82-2.287-8.296-3.863-13.063-4.336
								c-4.763-0.448-9.782,0.176-14.5,1.987c-4.744,1.758-9.07,4.87-12.535,8.825c-6.799,7.802-9.116,18.592-6.889,27.705
								c1.053,4.574,3.1,8.75,5.772,12.218c2.67,3.477,5.954,6.249,9.448,8.23c3.496,1.99,7.195,3.184,10.75,3.729
								c0.889,0.146,1.765,0.289,2.641,0.3c0.872,0.033,1.728,0.121,2.572,0.107c1.687-0.017,3.315-0.159,4.86-0.417
								c6.212-1.033,10.958-3.702,14.161-6.148c0.048-0.038,0.117-0.029,0.155,0.019c0.032,0.04,0.03,0.097,0,0.136l-0.011,0.014
								l-0.088-0.178c3.223,0.019,5.706,0.033,7.406,0.043c0.833,0.008,1.474,0.015,1.927,0.019
								C341.913,100.004,342.147,100.015,342.147,100.015z"/>
						</g>
					</g>
				</g>
			</g>
		</g>
	</g>
	<g>
		<g>
			<g>
				<path style="fill:#E0E0E0;" d="M310.232,73.97c0.484-0.034,0.904,0.098,1.308,0.286c0.181,0.084,0.394,0.145,0.594,0.145
					l0.53-0.012v-6.722c0-0.556-0.454-1.007-1.014-1.007h-6.574v-0.442c0-0.206,0.053-0.407,0.143-0.592
					c0.236-0.486,0.333-1.05,0.231-1.646c-0.202-1.182-1.189-2.104-2.388-2.235c-1.65-0.179-3.046,1.1-3.046,2.704
					c0,0.39,0.084,0.76,0.233,1.095c0.077,0.173,0.122,0.359,0.122,0.549v0.568h-6.411c-0.56,0-1.014,0.451-1.014,1.007v17.723
					c0,0.453,0.37,0.821,0.826,0.821h18.066c0.456,0,0.826-0.367,0.826-0.821v-6.405h-0.731c-0.169,0-0.336,0.033-0.493,0.096
					c-0.315,0.127-0.659,0.198-1.019,0.198c-1.549,0-2.797-1.279-2.735-2.832C307.74,75.08,308.857,74.066,310.232,73.97z"/>
			</g>
		</g>
		<g>
			<path style="fill:#455A64;" d="M319.866,69.172c-0.034-0.484,0.061-0.942,0.251-1.347c0.085-0.181,0.134-0.376,0.134-0.576
				v-0.513h-6.601c-0.56,0-1.014,0.454-1.014,1.014v6.574h-0.445c-0.207,0-0.409-0.053-0.596-0.143
				c-0.489-0.236-1.057-0.333-1.656-0.231c-1.189,0.202-2.117,1.189-2.248,2.388c-0.181,1.65,1.107,3.046,2.72,3.046
				c0.392,0,0.765-0.083,1.102-0.232c0.174-0.077,0.361-0.122,0.552-0.122h0.571v6.411c0,0.56,0.454,1.014,1.014,1.014h17.832
				c0.456,0,0.826-0.37,0.826-0.826V67.561c0-0.456-0.37-0.826-0.826-0.826h-6.444v0.731c0,0.169,0.033,0.336,0.097,0.493
				c0.127,0.315,0.199,0.659,0.199,1.019c0,1.549-1.286,2.797-2.849,2.735C321.107,71.659,319.962,70.546,319.866,69.172z"/>
		</g>
	</g>
</g>
<g id="Puzzle">
	<g>
		
			<rect x="234.501" y="390.958" transform="matrix(6.123234e-17 -1 1 6.123234e-17 -195.8668 704.0096)" style="fill:#E0E0E0;" width="39.141" height="117.96"/>
		
			<rect x="234.501" y="390.958" transform="matrix(6.123234e-17 -1 1 6.123234e-17 -195.8668 704.0096)" style="opacity:0.3;" width="39.141" height="117.96"/>
		<polygon style="fill:#455A64;" points="313.051,352.238 273.91,352.238 273.91,391.319 235.068,391.319 235.068,430.461 
			304.494,430.461 304.494,430.335 313.051,430.335 		"/>
		<polygon style="opacity:0.3;" points="313.051,352.238 273.91,352.238 273.91,391.319 235.068,391.319 235.068,430.461 
			304.494,430.461 304.494,430.335 313.051,430.335 		"/>
		<polygon style="fill:#FF725E;" points="273.667,274.457 229.325,274.457 229.325,313.208 273.667,313.208 273.667,352.118 
			312.808,352.118 312.808,313.208 312.808,274.457 		"/>
		<polygon style="opacity:0.3;" points="273.667,274.457 229.325,274.457 229.325,313.208 273.667,313.208 273.667,352.118 
			312.808,352.118 312.808,313.208 312.808,274.457 		"/>
		<g>
			<rect x="111.549" y="234.27" style="fill:#E0E0E0;" width="73.429" height="78.806"/>
			<rect x="111.549" y="234.27" style="opacity:0.3;" width="73.429" height="78.806"/>
			<rect x="82.201" y="234.27" style="fill:#E0E0E0;" width="73.429" height="78.806"/>
		</g>
		<polygon style="fill:#E0E0E0;" points="83.359,430.368 83.359,391.93 44.218,391.93 44.218,430.368 44.218,469.509 
			83.359,469.509 122.655,469.509 122.655,430.368 		"/>
		<polygon style="fill:#455A64;" points="161.297,352.476 121.849,352.476 121.849,313.076 82.708,313.076 82.708,352.476 
			43.412,352.476 43.412,391.617 82.708,391.617 82.708,430.368 121.849,430.368 121.849,391.617 161.297,391.617 		"/>
		<g>
			<rect x="43.567" y="234.27" style="fill:#FF725E;" width="39.141" height="118.818"/>
			<g>
				<path style="fill:#263238;" d="M43.567,234.27c0,0,0.011,0.208,0.016,0.599c0.004,0.404,0.009,0.98,0.016,1.732
					c0.007,1.533,0.018,3.774,0.033,6.672c0.017,5.816,0.041,14.259,0.071,24.839c0.029,21.144,0.07,50.814,0.117,84.977
					l-0.252-0.252c12.356-0.003,25.545-0.005,39.133-0.008h0.007l-0.26,0.26c0.036-47.644,0.068-90.352,0.09-118.818l0.171,0.171
					c-12.257-0.04-22.019-0.072-28.735-0.093c-3.355-0.018-5.945-0.032-7.714-0.042c-0.871-0.008-1.536-0.014-2.001-0.018
					C43.806,234.281,43.567,234.27,43.567,234.27s0.216-0.012,0.657-0.017c0.458-0.004,1.113-0.01,1.971-0.018
					c1.76-0.01,4.338-0.024,7.676-0.042c6.74-0.022,16.537-0.054,28.838-0.093l0.171-0.001l0,0.171
					c0.021,28.466,0.054,71.174,0.09,118.818l0,0.26h-0.261H82.7c-13.589-0.003-26.777-0.006-39.133-0.008l-0.253,0l0-0.252
					c0.047-34.233,0.088-63.963,0.117-85.151c0.03-10.555,0.054-18.978,0.071-24.781c0.014-2.875,0.025-5.098,0.033-6.619
					c0.007-0.739,0.012-1.304,0.016-1.701C43.556,234.456,43.567,234.27,43.567,234.27z"/>
			</g>
		</g>
		<polygon style="fill:#FF725E;" points="161.297,352.118 161.297,391.412 122.156,391.412 122.156,469.509 161.297,469.509 
			161.297,430.214 200.591,430.214 200.591,352.118 		"/>
		<polygon style="fill:#E0E0E0;" points="206.359,312.896 200.492,312.896 122.249,312.896 122.249,352.127 200.492,352.127 
			200.492,391.172 239.634,391.172 239.634,312.896 		"/>
		<polygon style="fill:#FF725E;" points="239.434,274.457 195.092,274.457 195.092,313.208 239.434,313.208 239.434,352.118 
			278.575,352.118 278.575,313.208 278.575,274.457 		"/>
		<polygon style="fill:#455A64;" points="278.575,352.238 239.434,352.238 239.434,391.319 200.591,391.319 200.591,430.461 
			270.017,430.461 270.017,430.335 278.575,430.335 		"/>
		
			<rect x="200.662" y="390.789" transform="matrix(6.123234e-17 -1 1 6.123234e-17 -229.7056 670.1708)" style="fill:#E0E0E0;" width="39.141" height="118.298"/>
		<g>
			<path style="fill:#263238;" d="M155.544,234.27c0.009,0,0.018,0.133,0.027,0.392c0.006,0.284,0.015,0.665,0.026,1.149
				c0.011,1.04,0.028,2.523,0.049,4.419c0.02,3.867,0.048,9.412,0.083,16.253c0.02,13.748,0.046,32.694,0.076,53.621
				c0,0.957,0,1.91,0,2.793v0.261l-0.26,0c-20.303-0.031-38.553-0.059-51.76-0.079c-6.57-0.034-11.884-0.062-15.587-0.082
				c-1.814-0.021-3.233-0.037-4.228-0.048c-0.462-0.011-0.826-0.019-1.098-0.025c-0.247-0.009-0.374-0.017-0.374-0.026
				c0-0.009,0.127-0.017,0.374-0.026c0.272-0.006,0.636-0.015,1.098-0.025c0.995-0.011,2.413-0.027,4.228-0.048
				c3.703-0.019,9.017-0.047,15.587-0.082c13.208-0.02,31.458-0.048,51.76-0.079l-0.26,0.26c0-0.884,0-1.836,0-2.793
				c0.03-20.926,0.057-39.873,0.076-53.621c0.035-6.841,0.063-12.386,0.083-16.253c0.021-1.896,0.037-3.38,0.049-4.419
				c0.011-0.484,0.02-0.865,0.026-1.149C155.526,234.402,155.535,234.27,155.544,234.27z"/>
		</g>
		<g>
			<path style="fill:#263238;" d="M155.544,312.816c0,0,0.52-0.023,1.529-0.034c1.022-0.008,2.515-0.018,4.461-0.033
				c3.923-0.014,9.66-0.034,16.973-0.061c14.658-0.022,35.625-0.054,60.926-0.093l0.22,0l0,0.221
				c0.011,22.806,0.025,49.653,0.039,78.503l0,0.259h-0.259c-5.325,0-10.986,0.001-16.709,0.001
				c-7.532-0.001-14.955-0.001-22.232-0.002l-0.259,0l0-0.258c0.005-13.613,0.009-26.737,0.014-39.192l0.245,0.245
				c-31.426-0.033-58.621-0.062-78.643-0.083l-0.162,0l0-0.161c0.032-12.331,0.057-22.089,0.075-28.781
				c0.018-3.33,0.032-5.893,0.042-7.64c0.01-0.857,0.017-1.511,0.022-1.966c0.007-0.441,0.023-0.666,0.023-0.666
				s0.015,0.225,0.023,0.666c0.005,0.454,0.012,1.108,0.022,1.966c0.01,1.746,0.024,4.31,0.042,7.64
				c0.017,6.691,0.042,16.449,0.074,28.781l-0.161-0.161c20.022-0.021,47.217-0.05,78.643-0.083l0.245,0l0,0.245
				c0.004,12.455,0.009,25.579,0.014,39.192l-0.258-0.258c7.277-0.001,14.7-0.001,22.232-0.002c5.724,0,11.385,0.001,16.709,0.001
				l-0.259,0.259c0.014-28.85,0.028-55.697,0.039-78.503l0.22,0.22c-25.301-0.038-46.268-0.07-60.926-0.093
				c-7.314-0.026-13.05-0.047-16.973-0.06c-1.946-0.014-3.439-0.025-4.461-0.033C156.064,312.839,155.544,312.816,155.544,312.816z"
				/>
		</g>
		<g>
			<path style="fill:#263238;" d="M312.664,352.258c0,0.144-16.41,0.26-36.647,0.26c-20.245,0-36.651-0.117-36.651-0.26
				s16.406-0.26,36.651-0.26C296.254,351.998,312.664,352.114,312.664,352.258z"/>
		</g>
		<g>
			<path style="fill:#263238;" d="M314.231,430.34c0,0.144-34.135,0.26-76.234,0.26c-42.113,0-76.241-0.117-76.241-0.26
				s34.128-0.26,76.241-0.26C280.096,430.079,314.231,430.196,314.231,430.34z"/>
		</g>
		<g>
			<path style="fill:#263238;" d="M200.591,392.631c0.144,0,0.26,8.336,0.26,18.617c0,10.285-0.117,18.619-0.26,18.619
				s-0.26-8.335-0.26-18.619C200.331,400.967,200.448,392.631,200.591,392.631z"/>
		</g>
		<g>
			<path style="fill:#263238;" d="M161.084,469.536c-0.144,0-0.26-8.775-0.26-19.597c0-10.826,0.117-19.599,0.26-19.599
				s0.26,8.773,0.26,19.599C161.344,460.761,161.228,469.536,161.084,469.536z"/>
		</g>
		<g>
			<path style="fill:#263238;" d="M161.297,352.476c0.006,0,0.012,0.061,0.018,0.181c0.005,0.141,0.01,0.316,0.018,0.537
				c0.008,0.501,0.02,1.198,0.034,2.093c0.015,1.862,0.036,4.543,0.063,7.943c0.023,6.869,0.055,16.633,0.094,28.333l0.001,0.225
				l-0.226,0c-11.287,0.01-24.59,0.022-38.781,0.035c-0.091,0-0.183,0-0.267,0l0.26-0.26c-0.03,21.437-0.057,40.827-0.077,54.891
				c-0.035,6.999-0.063,12.671-0.083,16.624c-0.021,1.94-0.037,3.457-0.049,4.519c-0.011,0.496-0.02,0.885-0.026,1.175
				c-0.009,0.265-0.018,0.4-0.027,0.4s-0.018-0.136-0.027-0.4c-0.006-0.29-0.015-0.679-0.026-1.175
				c-0.011-1.061-0.028-2.578-0.049-4.519c-0.02-3.953-0.048-9.625-0.083-16.624c-0.02-14.064-0.047-33.454-0.076-54.891l0-0.26
				h0.261c0.084,0,0.175,0,0.267,0c14.191,0.013,27.494,0.025,38.781,0.035l-0.225,0.225c0.039-11.7,0.071-21.464,0.094-28.333
				c0.027-3.399,0.048-6.081,0.062-7.943c0.015-0.895,0.026-1.592,0.034-2.093c0.007-0.221,0.013-0.396,0.018-0.537
				C161.285,352.537,161.291,352.476,161.297,352.476z"/>
		</g>
		<g>
			<path style="fill:#263238;" d="M121.849,430.368c0,0.007-0.064,0.014-0.189,0.021c-0.15,0.006-0.332,0.012-0.556,0.021
				c-0.525,0.01-1.243,0.023-2.158,0.039c-1.922,0.017-4.664,0.041-8.1,0.071c-6.965,0.023-16.738,0.056-28.137,0.094l-0.245,0.001
				l0-0.247c-0.005-6.017-0.01-12.595-0.015-19.45c0.005-6.8,0.01-13.328,0.015-19.301l0.246,0.246
				c-11.442-0.038-21.254-0.07-28.247-0.094c-3.451-0.03-6.203-0.054-8.134-0.071c-0.919-0.017-1.64-0.03-2.167-0.04
				c-0.225-0.008-0.409-0.015-0.559-0.021c-0.125-0.007-0.189-0.014-0.189-0.021c0-0.007,0.064-0.014,0.189-0.021
				c0.15-0.005,0.333-0.012,0.559-0.021c0.527-0.01,1.249-0.023,2.167-0.039c1.93-0.017,4.683-0.041,8.134-0.071
				c6.993-0.023,16.805-0.056,28.247-0.094l0.246-0.001l0,0.247c0.005,5.972,0.009,12.5,0.015,19.301
				c-0.005,6.854-0.01,13.433-0.015,19.45l-0.245-0.245c11.399,0.038,21.173,0.07,28.137,0.094c3.437,0.03,6.178,0.054,8.1,0.071
				c0.915,0.017,1.634,0.03,2.158,0.039c0.224,0.008,0.407,0.015,0.556,0.021C121.785,430.353,121.849,430.361,121.849,430.368z"/>
		</g>
	</g>
	<g>
		<path style="fill:#263238;" d="M312.808,274.457c0,0.009-0.136,0.018-0.402,0.027c-0.291,0.006-0.682,0.015-1.181,0.026
			c-1.067,0.012-2.592,0.028-4.542,0.049c-3.973,0.02-9.673,0.048-16.705,0.083c-14.129,0.02-33.603,0.047-55.112,0.076
			c-14.669-0.014-28.388-0.026-39.958-0.037l0.223-0.223c-0.039,11.395-0.071,20.884-0.093,27.556
			c-0.026,3.301-0.047,5.902-0.062,7.71c-0.014,0.868-0.025,1.544-0.033,2.03c-0.007,0.214-0.013,0.383-0.017,0.52
			c-0.006,0.117-0.012,0.176-0.018,0.176c0,0-0.023-0.237-0.035-0.696c-0.008-0.486-0.019-1.162-0.033-2.03
			c-0.015-1.807-0.035-4.409-0.062-7.71c-0.023-6.672-0.055-16.162-0.093-27.556l-0.001-0.223l0.224,0
			c11.57-0.011,25.288-0.023,39.958-0.037c21.509,0.03,40.983,0.057,55.112,0.076c7.032,0.035,12.732,0.063,16.705,0.083
			c1.95,0.021,3.475,0.037,4.542,0.049c0.499,0.011,0.89,0.02,1.181,0.026C312.672,274.439,312.808,274.448,312.808,274.457z"/>
	</g>
</g>
</svg>
