<?xml version="1.0" encoding="utf-8"?>
<!-- Generator: Adobe Illustrator 28.2.0, SVG Export Plug-In . SVG Version: 6.00 Build 0)  -->
<svg version="1.1" id="Capa_1" xmlns="http://www.w3.org/2000/svg" xmlns:xlink="http://www.w3.org/1999/xlink" x="0px" y="0px"
	 viewBox="0 0 240 402" style="enable-background:new 0 0 240 402;" xml:space="preserve">
<style type="text/css">
	.st0{fill:#915ef7;}
	.st1{fill:none;stroke:#915ef7;stroke-width:20;stroke-miterlimit:10;}
</style>
<path class="st0" d="M26.3,170.5h187.4c3.6,0,6.8-1.8,9.4-5.4c2.6-3.6,4-7.9,4-12.8s-1.3-9.2-4-12.9L129.4,11.4
	C126.8,7.8,123.6,6,120,6c-3.6,0-6.8,1.8-9.4,5.4L16.9,139.3c-2.6,3.6-4,7.9-4,12.9c0,4.9,1.3,9.2,4,12.8
	C19.5,168.6,22.7,170.5,26.3,170.5z"/>
<path class="st1" d="M213.7,231.5H26.3c-3.6,0-6.8,1.8-9.4,5.4c-2.6,3.6-4,7.9-4,12.8c0,4.9,1.3,9.2,4,12.8l93.7,127.9
	c2.7,3.6,5.8,5.4,9.4,5.4c3.6,0,6.8-1.8,9.4-5.4l93.7-127.9c2.6-3.6,4-7.9,4-12.8c0-4.9-1.3-9.2-4-12.8
	C220.5,233.4,217.3,231.5,213.7,231.5z"/>
</svg>
