<?xml version="1.0" encoding="utf-8"?>
<!-- Generator: Adobe Illustrator 28.2.0, SVG Export Plug-In . SVG Version: 6.00 Build 0)  -->
<svg version="1.1" id="Capa_1" xmlns="http://www.w3.org/2000/svg" xmlns:xlink="http://www.w3.org/1999/xlink" x="0px" y="0px"
	 viewBox="0 0 240 402" style="enable-background:new 0 0 240 402;" xml:space="preserve">
<style type="text/css">
	.st0{fill:none;stroke:#915ef7;stroke-width:20;stroke-linejoin:bevel;stroke-miterlimit:10;}
</style>
<path class="st0" d="M16.9,237c-2.6,3.6-4,7.9-4,12.8c0,4.9,1.3,9.2,4,12.8l93.7,127.9c2.6,3.6,5.8,5.4,9.4,5.4
	c3.6,0,6.8-1.8,9.4-5.4l93.7-127.9c2.6-3.6,4-7.9,4-12.9s-1.3-9.2-4-12.8c-2.6-3.6-5.8-5.4-9.4-5.4H26.3
	C22.7,231.5,19.5,233.4,16.9,237z"/>
<path class="st0" d="M223.1,165c2.6-3.6,4-7.9,4-12.8c0-4.9-1.3-9.2-4-12.8L129.4,11.4C126.8,7.8,123.6,6,120,6
	c-3.6,0-6.8,1.8-9.4,5.4L16.9,139.3c-2.6,3.6-4,7.9-4,12.8c0,4.9,1.3,9.2,4,12.8c2.6,3.6,5.8,5.4,9.4,5.4h187.4
	C217.3,170.4,220.5,168.6,223.1,165z"/>
</svg>
